<svg id="svg" version="1.1" xmlns="http://www.w3.org/2000/svg" xmlns:xlink="http://www.w3.org/1999/xlink" width="400" height="417.92717086834733" viewBox="0, 0, 400,417.92717086834733"><g id="svgg"><path id="path0" d="M18.239 0.423 C 17.160 0.603,16.170 0.911,16.039 1.105 C 15.907 1.300,14.957 1.691,13.926 1.974 C 12.895 2.258,11.955 2.739,11.838 3.045 C 11.721 3.350,11.349 3.600,11.013 3.600 C 10.676 3.600,10.400 3.789,10.400 4.021 C 10.400 4.252,9.860 4.630,9.200 4.860 C 8.540 5.090,8.000 5.404,8.000 5.559 C 8.000 5.713,7.277 6.640,6.392 7.619 C 5.508 8.599,4.563 9.674,4.292 10.009 C 3.476 11.019,1.600 14.965,1.600 15.672 C 1.600 16.036,1.430 16.393,1.223 16.467 C -0.681 17.140,-0.681 400.460,1.223 401.133 C 1.430 401.207,1.600 401.564,1.600 401.928 C 1.600 402.635,3.476 406.581,4.292 407.591 C 4.563 407.926,5.508 409.001,6.392 409.981 C 7.277 410.960,8.000 411.887,8.000 412.041 C 8.000 412.196,8.540 412.510,9.200 412.740 C 9.860 412.970,10.400 413.348,10.400 413.579 C 10.400 413.811,10.676 414.000,11.013 414.000 C 11.349 414.000,11.724 414.259,11.846 414.576 C 11.967 414.892,12.592 415.266,13.233 415.407 C 13.875 415.548,14.400 415.801,14.400 415.968 C 14.400 417.411,12.979 417.400,200.000 417.400 C 387.021 417.400,385.600 417.411,385.600 415.968 C 385.600 415.801,386.140 415.545,386.800 415.400 C 387.460 415.255,388.000 414.966,388.000 414.758 C 388.000 414.550,388.450 414.209,389.000 414.000 C 389.550 413.791,390.000 413.455,390.000 413.253 C 390.000 413.052,390.405 412.771,390.900 412.630 C 391.395 412.489,392.610 411.380,393.600 410.165 C 394.590 408.951,395.581 407.742,395.801 407.478 C 396.520 406.621,398.400 402.606,398.400 401.928 C 398.400 401.564,398.570 401.207,398.777 401.133 C 400.681 400.460,400.681 17.140,398.777 16.467 C 398.570 16.393,398.400 16.036,398.400 15.672 C 398.400 14.965,396.524 11.019,395.708 10.009 C 395.437 9.674,394.492 8.599,393.608 7.619 C 392.723 6.640,392.000 5.713,392.000 5.559 C 392.000 5.404,391.460 5.090,390.800 4.860 C 390.140 4.630,389.600 4.252,389.600 4.021 C 389.600 3.789,389.324 3.600,388.987 3.600 C 388.651 3.600,388.279 3.350,388.162 3.045 C 388.045 2.739,387.105 2.258,386.074 1.974 C 385.043 1.691,384.097 1.307,383.971 1.120 C 383.844 0.934,382.674 0.606,381.371 0.393 C 378.439 -0.087,21.107 -0.058,18.239 0.423 M379.639 8.254 C 379.947 8.503,380.785 8.833,381.500 8.986 C 382.215 9.138,382.800 9.385,382.800 9.534 C 382.800 9.683,383.342 10.045,384.004 10.338 C 385.048 10.800,387.180 12.715,388.656 14.516 C 389.581 15.644,391.200 19.018,391.200 19.817 C 391.200 20.270,391.380 20.820,391.601 21.041 C 391.867 21.307,391.967 71.435,391.901 170.621 L 391.800 319.800 200.000 319.800 L 8.200 319.800 8.208 170.600 C 8.215 51.529,8.318 21.046,8.722 19.647 C 9.689 16.294,13.502 11.463,16.100 10.298 C 16.705 10.027,17.200 9.683,17.200 9.534 C 17.200 9.385,17.785 9.138,18.500 8.986 C 19.215 8.833,19.980 8.566,20.200 8.392 C 20.420 8.219,21.050 7.993,21.600 7.892 C 24.006 7.447,379.084 7.806,379.639 8.254 M254.600 75.346 C 249.205 77.829,250.271 85.279,256.106 85.872 C 259.366 86.203,262.000 83.757,261.998 80.400 C 261.996 76.688,257.844 73.852,254.600 75.346 M131.200 352.600 L 131.200 355.600 128.200 355.600 L 125.200 355.600 125.200 352.600 L 125.200 349.600 128.200 349.600 L 131.200 349.600 131.200 352.600 M148.000 352.445 L 148.000 355.291 146.173 355.017 C 143.937 354.682,142.400 355.493,142.400 357.009 C 142.400 357.969,142.487 358.000,145.200 358.000 L 148.000 358.000 148.000 360.800 L 148.000 363.600 145.208 363.600 L 142.415 363.600 142.308 372.500 L 142.200 381.400 139.400 381.400 L 136.600 381.400 136.492 372.500 L 136.385 363.600 134.974 363.600 L 133.563 363.600 133.682 360.900 L 133.800 358.200 135.100 358.075 C 136.326 357.956,136.400 357.860,136.400 356.369 C 136.400 355.500,136.559 354.477,136.753 354.095 C 136.948 353.713,137.316 352.950,137.571 352.400 C 138.547 350.301,140.231 349.600,144.294 349.600 L 148.000 349.600 148.000 352.445 M155.918 352.716 L 156.036 355.633 152.718 355.516 L 149.400 355.400 149.275 353.427 C 149.039 349.691,149.168 349.550,152.712 349.683 L 155.800 349.800 155.918 352.716 M205.905 365.500 L 205.800 381.400 203.088 381.519 C 200.387 381.637,200.375 381.632,199.851 380.385 C 199.400 379.313,199.243 379.213,198.762 379.690 C 195.720 382.707,188.905 382.128,185.440 378.560 C 181.645 374.653,181.137 365.793,184.477 361.789 C 187.933 357.646,194.046 356.336,197.929 358.906 L 199.600 360.011 199.600 355.438 C 199.600 349.369,199.464 349.600,203.047 349.600 L 206.009 349.600 205.905 365.500 M60.258 350.805 C 62.949 351.242,63.669 351.555,66.500 353.520 C 68.812 355.125,68.825 355.327,66.756 357.708 C 65.131 359.576,63.773 360.116,63.365 359.054 C 62.035 355.588,52.609 355.678,49.688 359.185 C 47.681 361.595,46.250 368.166,47.556 368.973 C 47.751 369.094,48.033 369.689,48.183 370.296 C 49.586 376.006,57.735 377.529,63.300 373.121 L 64.894 371.859 66.647 373.741 C 69.117 376.393,68.512 377.681,63.702 380.007 C 62.656 380.512,61.487 381.078,61.105 381.263 C 60.108 381.747,52.000 381.691,52.000 381.200 C 52.000 380.980,51.685 380.798,51.300 380.796 C 42.647 380.751,37.342 363.451,43.835 356.449 C 44.366 355.877,44.800 355.288,44.800 355.142 C 44.800 354.832,48.136 352.433,49.600 351.690 C 51.911 350.519,56.265 350.157,60.258 350.805 M239.531 352.190 C 243.055 354.101,244.396 356.303,245.079 361.300 C 245.209 362.252,245.123 362.800,244.842 362.800 C 244.599 362.800,244.400 363.268,244.400 363.840 C 244.400 368.425,239.336 371.598,231.512 371.914 L 227.225 372.088 227.112 376.744 L 227.000 381.400 224.200 381.400 L 221.400 381.400 221.295 366.064 L 221.190 350.729 229.295 350.882 C 237.340 351.034,237.416 351.044,239.531 352.190 M116.800 355.000 L 116.800 358.000 119.600 358.000 L 122.400 358.000 122.400 360.800 L 122.400 363.600 119.600 363.600 L 116.800 363.600 116.800 369.351 C 116.800 376.311,117.180 376.803,121.600 375.568 C 123.029 375.168,122.613 380.235,121.157 380.962 C 119.506 381.785,115.537 381.795,113.959 380.979 C 111.035 379.467,111.013 379.396,110.875 371.063 L 110.751 363.524 107.875 363.808 C 106.294 363.964,104.940 364.251,104.867 364.446 C 104.793 364.641,104.492 364.800,104.197 364.800 C 103.453 364.800,101.200 366.756,101.200 367.402 C 101.200 367.694,100.978 368.007,100.707 368.098 C 100.354 368.215,100.155 370.135,100.007 374.831 L 99.800 381.400 97.000 381.400 L 94.200 381.400 94.094 369.700 L 93.988 358.000 96.994 358.000 L 100.000 358.000 100.000 359.419 L 100.000 360.838 101.524 359.613 C 103.539 357.994,105.271 357.544,108.300 357.854 L 110.800 358.110 110.800 355.055 L 110.800 352.000 113.800 352.000 L 116.800 352.000 116.800 355.000 M292.000 354.983 L 292.000 357.966 295.100 358.083 L 298.200 358.200 298.200 360.800 L 298.200 363.400 295.100 363.517 L 292.000 363.634 292.000 369.155 C 292.000 376.048,292.874 377.165,296.900 375.418 C 297.529 375.145,297.600 375.401,297.600 377.957 C 297.600 380.505,297.519 380.800,296.824 380.800 C 296.397 380.800,295.936 380.980,295.800 381.200 C 295.406 381.837,290.673 381.675,289.271 380.976 C 286.524 379.605,286.214 378.605,286.074 370.656 L 285.949 363.512 283.402 363.785 C 277.134 364.456,275.616 366.725,275.227 376.000 L 275.000 381.400 273.027 381.525 C 271.941 381.594,270.636 381.545,270.127 381.417 L 269.200 381.185 269.200 369.592 L 269.200 358.000 272.200 358.000 L 275.200 358.000 275.200 359.731 L 275.200 361.463 276.943 359.793 C 278.937 357.882,280.374 357.467,283.695 357.843 L 286.000 358.103 286.000 355.052 L 286.000 352.000 289.000 352.000 L 292.000 352.000 292.000 354.983 M227.200 361.400 L 227.200 366.000 230.939 366.000 C 236.277 366.000,238.407 364.746,238.395 361.611 C 238.380 357.779,236.931 356.800,231.275 356.800 L 227.200 356.800 227.200 361.400 M85.863 358.882 C 89.379 360.936,91.286 364.380,91.354 368.800 L 91.400 371.800 83.300 371.908 C 74.388 372.027,74.550 371.965,76.755 374.449 L 78.310 376.200 81.055 376.182 C 83.371 376.166,84.043 375.994,85.356 375.082 C 86.212 374.487,87.054 374.000,87.227 374.000 C 87.693 374.000,90.400 376.630,90.400 377.083 C 90.400 377.742,87.330 380.352,86.231 380.628 C 85.660 380.771,85.094 381.049,84.973 381.244 C 84.686 381.709,77.200 381.709,77.200 381.245 C 77.200 381.049,76.596 380.776,75.859 380.637 C 69.124 379.374,66.854 366.789,72.306 360.942 C 75.407 357.615,81.985 356.615,85.863 358.882 M175.385 358.970 C 176.351 359.536,177.513 360.495,177.966 361.100 C 178.420 361.705,178.977 362.421,179.204 362.692 C 179.431 362.963,179.726 363.732,179.860 364.400 C 179.994 365.069,180.260 365.714,180.452 365.832 C 180.643 365.950,180.800 367.387,180.800 369.024 L 180.800 372.000 172.800 372.000 C 165.956 372.000,164.800 372.087,164.800 372.600 C 164.800 372.930,164.959 373.200,165.153 373.200 C 165.348 373.200,165.596 373.542,165.705 373.959 C 166.412 376.662,172.218 377.189,174.943 374.797 C 176.223 373.672,176.302 373.656,177.234 374.307 C 178.205 374.984,180.000 376.781,180.000 377.074 C 180.000 377.657,176.515 380.477,175.559 380.668 C 174.912 380.798,174.286 381.060,174.168 381.252 C 173.890 381.701,167.407 381.707,166.495 381.259 C 166.113 381.071,165.116 380.588,164.280 380.185 C 162.419 379.288,160.116 376.810,159.749 375.310 C 159.599 374.700,159.280 374.072,159.038 373.915 C 158.191 373.363,158.495 366.421,159.456 364.399 C 162.376 358.251,169.826 355.712,175.385 358.970 M261.634 359.017 C 263.576 360.001,264.658 361.289,265.486 363.600 C 266.059 365.199,266.206 380.255,265.657 381.121 C 265.071 382.045,260.283 381.589,259.834 380.567 L 259.468 379.734 257.713 380.667 C 253.319 383.003,246.338 380.881,245.341 376.906 C 243.661 370.215,247.966 366.036,256.060 366.498 C 259.893 366.716,260.346 366.421,258.970 364.600 C 258.204 363.586,251.635 363.418,249.861 364.367 C 248.518 365.086,247.800 364.155,246.934 360.567 C 246.314 358.002,257.338 356.840,261.634 359.017 M317.646 358.809 C 320.872 360.924,321.000 361.428,321.000 372.000 L 321.000 381.400 319.027 381.525 C 315.021 381.778,315.265 382.286,315.124 373.406 C 315.000 365.618,315.000 365.616,313.958 364.575 C 312.362 362.981,309.423 363.077,307.908 364.773 L 306.800 366.013 306.800 373.564 C 306.800 382.150,307.048 381.600,303.175 381.600 C 300.178 381.600,300.348 382.399,300.488 369.000 L 300.600 358.200 303.533 358.082 C 306.202 357.974,306.485 358.037,306.679 358.782 C 306.941 359.784,307.013 359.787,308.338 358.847 C 310.544 357.282,315.287 357.263,317.646 358.809 M339.944 358.571 C 341.909 359.587,344.379 362.418,344.849 364.193 C 345.083 365.077,345.438 366.113,345.637 366.495 C 345.837 366.877,346.000 368.272,346.000 369.595 L 346.000 372.000 337.813 372.000 L 329.627 372.000 330.420 373.344 C 332.364 376.639,336.471 377.373,339.911 375.039 L 341.623 373.879 343.111 375.083 C 343.930 375.745,344.661 376.597,344.736 376.976 C 344.907 377.850,342.216 380.289,340.718 380.618 C 340.108 380.752,339.506 381.028,339.381 381.231 C 339.094 381.695,332.631 381.719,331.695 381.259 C 331.313 381.071,330.333 380.597,329.519 380.206 C 320.526 375.885,322.102 360.515,331.800 357.949 C 333.610 357.470,338.543 357.847,339.944 358.571 M362.000 360.800 L 362.000 364.000 360.600 364.000 C 359.830 364.000,359.200 364.141,359.200 364.312 C 359.200 364.484,358.676 364.822,358.035 365.064 C 355.477 366.030,354.679 368.270,354.426 375.200 L 354.200 381.400 351.400 381.400 L 348.600 381.400 348.494 369.700 L 348.388 358.000 351.370 358.000 L 354.352 358.000 354.476 359.495 L 354.600 360.990 355.400 360.175 C 357.025 358.519,358.723 357.738,360.900 357.646 L 362.000 357.600 362.000 360.800 M131.106 369.700 L 131.000 381.400 129.027 381.525 C 127.941 381.594,126.636 381.545,126.127 381.417 L 125.200 381.185 125.200 369.592 L 125.200 358.000 128.206 358.000 L 131.212 358.000 131.106 369.700 M155.906 369.351 C 156.029 382.236,156.177 381.688,152.637 381.517 L 150.200 381.400 150.094 369.682 L 149.988 357.965 152.894 358.082 L 155.800 358.200 155.906 369.351 M78.147 363.476 C 77.159 363.969,75.200 366.602,75.200 367.438 C 75.200 367.527,77.524 367.600,80.364 367.600 L 85.527 367.600 84.746 365.984 C 83.385 363.165,80.766 362.170,78.147 363.476 M167.800 363.362 C 166.501 363.938,164.800 365.990,164.800 366.984 C 164.800 367.504,165.544 367.600,169.600 367.600 C 174.894 367.600,175.007 367.534,173.773 365.149 C 172.736 363.142,170.087 362.350,167.800 363.362 M332.551 363.455 C 331.506 363.992,330.827 364.900,329.677 367.300 C 329.598 367.465,331.888 367.600,334.767 367.600 C 337.645 367.600,340.000 367.538,340.000 367.461 C 340.000 364.571,335.300 362.043,332.551 363.455 M191.800 363.761 C 186.068 366.291,187.914 376.000,194.127 376.000 C 197.955 376.000,199.770 373.642,199.535 368.974 C 199.299 364.312,195.838 361.979,191.800 363.761 M253.400 371.550 C 250.264 372.644,250.323 376.400,253.476 376.400 C 253.984 376.400,254.400 376.616,254.400 376.880 C 254.400 377.253,254.507 377.253,254.880 376.880 C 255.144 376.616,255.824 376.400,256.391 376.400 C 257.747 376.400,258.997 375.489,259.772 373.935 C 260.641 372.194,260.597 372.080,258.900 371.656 C 255.792 370.878,255.351 370.869,253.400 371.550 " stroke="none" fill="#6b6b73" fill-rule="evenodd"></path><path id="path1" d="M135.200 48.910 C 135.200 71.895,146.188 93.778,165.600 109.452 C 168.809 112.044,175.123 116.400,175.669 116.400 C 175.851 116.400,176.000 116.580,176.000 116.800 C 176.000 118.824,161.792 114.682,151.846 109.759 C 149.891 108.792,148.208 108.000,148.106 108.000 C 148.005 108.000,148.044 109.125,148.195 110.500 C 150.112 128.044,164.181 147.382,181.000 155.591 C 187.187 158.610,195.070 161.200,198.075 161.200 C 198.694 161.200,199.200 161.359,199.200 161.553 C 199.200 163.397,182.881 162.248,174.000 159.778 C 167.983 158.105,169.296 157.433,158.741 167.583 C 135.574 189.861,132.003 193.287,128.900 196.217 C 125.083 199.820,125.033 199.975,127.306 201.110 C 143.496 209.196,169.685 205.214,179.183 193.222 C 180.815 191.161,180.778 191.051,177.900 189.439 C 176.525 188.669,174.770 187.560,174.000 186.976 L 172.600 185.914 174.800 186.158 C 192.206 188.085,209.881 186.243,223.800 181.051 C 238.028 175.743,250.632 163.319,256.111 149.200 C 259.584 140.253,260.364 135.857,260.759 123.000 C 261.114 111.466,261.072 111.597,265.915 106.840 C 269.814 103.012,271.858 99.957,273.262 95.863 C 274.195 93.140,274.213 93.120,276.689 91.993 C 279.626 90.656,282.881 87.579,283.572 85.485 C 284.459 82.798,280.057 78.965,274.962 77.988 L 272.525 77.520 271.023 74.910 C 264.082 62.841,247.455 59.056,235.756 66.881 C 232.144 69.296,230.164 71.515,225.833 78.000 L 222.493 83.000 225.549 86.200 C 230.551 91.437,233.532 96.666,235.166 103.067 C 236.480 108.213,236.167 109.605,234.498 106.041 C 229.670 95.734,220.265 88.942,182.800 68.710 C 181.370 67.938,178.400 66.323,176.200 65.122 C 174.000 63.921,170.040 61.804,167.400 60.417 C 164.760 59.030,161.700 57.402,160.600 56.799 C 159.500 56.195,156.170 54.442,153.200 52.902 C 150.230 51.362,145.166 48.729,141.946 47.051 C 134.576 43.210,135.200 43.038,135.200 48.910 M259.250 75.625 C 261.543 76.796,262.682 79.364,261.995 81.818 C 260.735 86.318,255.439 87.600,252.401 84.139 C 248.241 79.402,253.598 72.742,259.250 75.625 M225.200 219.477 C 219.799 220.308,213.836 222.360,213.681 223.441 C 213.190 226.848,219.017 231.401,223.400 231.036 C 236.891 229.912,241.364 230.839,244.450 235.398 C 245.999 237.686,247.405 245.600,246.263 245.600 C 246.187 245.600,245.115 245.252,243.880 244.827 C 232.555 240.931,218.197 242.666,212.209 248.654 C 206.465 254.398,206.499 266.155,212.275 271.904 C 219.399 278.994,234.358 279.010,244.682 271.939 L 246.363 270.787 246.482 273.493 L 246.600 276.200 253.200 276.200 L 259.800 276.200 259.910 257.800 C 260.034 237.017,259.870 235.254,257.318 230.000 C 252.846 220.793,241.278 217.003,225.200 219.477 M296.955 219.212 C 290.567 220.067,286.374 222.235,283.540 226.146 C 282.779 227.196,282.400 227.485,282.400 227.014 C 282.400 223.550,277.859 220.690,271.500 220.149 L 268.400 219.885 268.400 248.342 L 268.400 276.800 275.366 276.800 L 282.331 276.800 282.507 262.300 C 282.700 246.376,282.836 245.324,285.302 240.679 C 287.439 236.654,293.357 232.400,296.820 232.400 C 300.410 232.400,301.663 230.100,301.513 223.785 L 301.400 219.000 300.400 218.942 C 299.850 218.911,298.300 219.032,296.955 219.212 M304.400 219.325 C 304.400 219.614,305.644 222.989,307.164 226.825 C 309.860 233.626,312.775 241.023,317.403 252.800 C 318.656 255.990,321.215 262.470,323.088 267.200 C 328.090 279.826,327.742 278.420,326.394 280.546 C 324.346 283.774,321.472 284.562,316.609 283.228 C 314.895 282.758,313.431 282.436,313.354 282.513 C 312.883 282.984,309.178 291.335,309.291 291.673 C 309.799 293.198,319.713 295.444,323.954 294.995 C 332.914 294.046,336.306 290.456,341.671 276.239 C 342.758 273.357,344.830 267.850,346.275 264.000 C 347.719 260.150,349.307 255.920,349.802 254.600 C 350.298 253.280,353.335 245.217,356.552 236.683 C 359.768 228.148,362.400 220.903,362.400 220.583 C 362.400 218.543,351.814 221.125,348.722 223.918 C 346.300 226.107,345.996 226.854,340.400 244.400 C 339.031 248.690,337.506 253.460,337.010 255.000 C 336.515 256.540,335.698 259.109,335.196 260.708 C 334.694 262.308,334.215 263.548,334.131 263.464 C 334.047 263.380,331.462 255.805,328.386 246.631 C 321.490 226.059,321.064 225.189,316.334 222.023 C 312.800 219.657,304.400 217.759,304.400 219.325 M62.000 219.614 C 42.702 223.599,32.895 245.359,42.294 263.341 C 50.542 279.121,73.869 283.193,88.145 271.344 C 91.300 268.724,91.332 268.536,88.965 266.453 C 85.291 263.219,81.742 262.387,78.585 264.019 C 66.690 270.170,54.760 264.327,52.780 251.382 C 50.505 236.510,63.872 226.375,77.229 232.845 C 81.535 234.931,85.039 234.195,88.500 230.476 C 91.192 227.584,90.867 226.894,85.041 223.129 C 80.028 219.889,68.893 218.190,62.000 219.614 M178.255 219.834 C 174.400 220.767,170.945 222.655,168.361 225.239 C 166.181 227.419,166.000 227.522,166.000 226.580 C 166.000 222.901,162.164 220.491,155.700 220.110 L 152.000 219.891 152.000 248.355 L 152.000 276.819 158.900 276.709 L 165.800 276.600 166.000 258.590 L 166.200 240.581 167.514 237.913 C 171.463 229.894,183.409 229.144,187.802 236.640 C 189.724 239.919,190.000 242.935,190.000 260.635 L 190.000 276.800 197.000 276.800 L 204.000 276.800 203.991 256.900 C 203.980 231.694,203.577 229.336,198.370 224.047 C 194.094 219.703,185.893 217.985,178.255 219.834 M110.726 220.008 C 106.295 220.703,99.045 222.879,98.564 223.658 C 98.186 224.270,100.906 228.829,102.372 230.040 C 104.498 231.796,106.316 232.155,110.180 231.580 C 124.063 229.514,131.600 233.820,131.600 243.818 L 131.600 246.290 127.700 245.097 C 119.800 242.679,107.618 243.145,101.699 246.090 C 89.163 252.328,90.051 271.376,103.112 276.374 C 110.761 279.301,121.604 277.942,128.766 273.159 C 131.727 271.182,131.600 271.136,131.600 274.200 L 131.600 276.800 138.200 276.800 L 144.800 276.800 144.800 257.826 C 144.800 234.680,144.508 232.723,140.209 227.094 C 135.681 221.163,122.913 218.094,110.726 220.008 M240.163 250.580 C 241.831 250.899,244.029 251.529,245.047 251.979 L 246.898 252.798 246.721 256.299 C 246.400 262.626,243.064 266.441,236.500 267.986 C 227.278 270.156,219.925 265.128,221.570 257.777 C 222.972 251.512,230.269 248.687,240.163 250.580 M126.216 251.404 C 127.527 251.736,129.275 252.303,130.100 252.664 L 131.600 253.321 131.600 256.734 C 131.600 268.853,112.549 274.484,107.176 263.954 C 102.799 255.374,113.650 248.221,126.216 251.404 " stroke="none" fill="#fbcb34" fill-rule="evenodd"></path><path id="path2" d="M20.200 9.023 C 14.927 10.892,10.933 14.963,9.440 19.992 C 8.858 21.948,8.800 35.728,8.800 170.673 L 8.800 319.200 200.000 319.200 L 391.200 319.200 391.196 170.500 C 391.191 8.674,391.356 20.170,388.984 16.343 C 386.816 12.845,383.694 10.362,379.829 9.063 C 377.037 8.124,22.847 8.085,20.200 9.023 M141.946 47.051 C 145.166 48.729,150.230 51.362,153.200 52.902 C 156.170 54.442,159.500 56.195,160.600 56.799 C 161.700 57.402,164.760 59.030,167.400 60.417 C 170.040 61.804,174.000 63.921,176.200 65.122 C 178.400 66.323,181.370 67.938,182.800 68.710 C 220.265 88.942,229.670 95.734,234.498 106.041 C 236.167 109.605,236.480 108.213,235.166 103.067 C 233.532 96.666,230.551 91.437,225.549 86.200 L 222.493 83.000 225.833 78.000 C 230.164 71.515,232.144 69.296,235.756 66.881 C 247.459 59.054,264.082 62.841,271.027 74.917 L 272.533 77.534 275.078 78.015 C 277.984 78.563,281.654 80.726,283.125 82.758 C 284.907 85.220,282.142 89.338,277.064 91.784 L 274.200 93.163 273.262 95.882 C 271.852 99.966,269.803 103.022,265.915 106.840 C 261.072 111.597,261.114 111.466,260.759 123.000 C 259.912 150.530,249.418 168.681,228.389 178.989 C 214.809 185.645,194.592 188.350,174.800 186.158 L 172.600 185.914 174.000 186.976 C 174.770 187.560,176.525 188.669,177.900 189.439 C 180.778 191.051,180.815 191.161,179.183 193.222 C 169.685 205.214,143.496 209.196,127.306 201.110 C 125.033 199.975,125.083 199.820,128.900 196.217 C 132.003 193.287,135.574 189.861,158.741 167.583 C 169.296 157.433,167.983 158.105,174.000 159.778 C 182.881 162.248,199.200 163.397,199.200 161.553 C 199.200 161.359,198.694 161.200,198.075 161.200 C 195.070 161.200,187.187 158.610,181.000 155.591 C 164.181 147.382,150.112 128.044,148.195 110.500 C 148.044 109.125,148.005 108.000,148.106 108.000 C 148.208 108.000,149.891 108.792,151.846 109.759 C 161.792 114.682,176.000 118.824,176.000 116.800 C 176.000 116.580,175.851 116.400,175.669 116.400 C 175.123 116.400,168.809 112.044,165.600 109.452 C 146.188 93.778,135.200 71.895,135.200 48.910 C 135.200 43.038,134.576 43.210,141.946 47.051 M242.660 219.566 C 249.957 221.072,254.580 224.362,257.318 230.000 C 259.870 235.254,260.034 237.017,259.910 257.800 L 259.800 276.200 253.200 276.200 L 246.600 276.200 246.482 273.493 L 246.363 270.787 244.682 271.939 C 234.358 279.010,219.399 278.994,212.275 271.904 C 206.499 266.155,206.465 254.398,212.209 248.654 C 218.197 242.666,232.555 240.931,243.880 244.827 C 245.115 245.252,246.187 245.600,246.263 245.600 C 247.405 245.600,245.999 237.686,244.450 235.398 C 241.364 230.839,236.891 229.912,223.400 231.036 C 219.017 231.401,213.190 226.848,213.681 223.441 C 214.135 220.287,233.565 217.689,242.660 219.566 M301.513 223.785 C 301.663 230.100,300.410 232.400,296.820 232.400 C 293.357 232.400,287.439 236.654,285.302 240.679 C 282.836 245.324,282.700 246.376,282.507 262.300 L 282.331 276.800 275.366 276.800 L 268.400 276.800 268.400 248.342 L 268.400 219.885 271.500 220.149 C 277.859 220.690,282.400 223.550,282.400 227.014 C 282.400 227.485,282.779 227.196,283.540 226.146 C 286.750 221.716,294.090 218.580,300.400 218.942 L 301.400 219.000 301.513 223.785 M310.906 219.653 C 319.613 222.002,320.684 223.656,328.386 246.631 C 331.462 255.805,334.047 263.380,334.131 263.464 C 334.215 263.548,334.694 262.308,335.196 260.708 C 335.698 259.109,336.515 256.540,337.010 255.000 C 337.506 253.460,339.031 248.690,340.400 244.400 C 345.996 226.854,346.300 226.107,348.722 223.918 C 351.814 221.125,362.400 218.543,362.400 220.583 C 362.400 220.903,359.768 228.148,356.552 236.683 C 353.335 245.217,350.298 253.280,349.802 254.600 C 349.307 255.920,347.719 260.150,346.275 264.000 C 344.830 267.850,342.758 273.357,341.671 276.239 C 336.306 290.456,332.914 294.046,323.954 294.995 C 319.713 295.444,309.799 293.198,309.291 291.673 C 309.178 291.335,312.883 282.984,313.354 282.513 C 313.431 282.436,314.895 282.758,316.609 283.228 C 321.472 284.562,324.346 283.774,326.394 280.546 C 327.742 278.420,328.090 279.826,323.088 267.200 C 321.215 262.470,318.656 255.990,317.403 252.800 C 312.775 241.023,309.860 233.626,307.164 226.825 C 305.644 222.989,304.400 219.614,304.400 219.325 C 304.400 218.527,307.267 218.671,310.906 219.653 M79.431 220.538 C 83.906 221.997,90.400 226.331,90.400 227.859 C 90.400 228.795,86.732 232.457,85.000 233.250 C 82.614 234.342,80.043 234.209,77.229 232.845 C 63.872 226.375,50.505 236.510,52.780 251.382 C 54.760 264.327,66.690 270.170,78.585 264.019 C 81.742 262.387,85.291 263.219,88.965 266.453 C 91.332 268.536,91.300 268.724,88.145 271.344 C 73.869 283.193,50.542 279.121,42.294 263.341 C 35.794 250.905,38.625 234.417,48.685 226.120 C 56.636 219.563,69.357 217.253,79.431 220.538 M190.400 219.632 C 197.023 221.149,201.564 226.059,203.204 233.477 C 203.917 236.704,203.983 238.671,203.991 256.900 L 204.000 276.800 197.000 276.800 L 190.000 276.800 190.000 260.635 C 190.000 242.935,189.724 239.919,187.802 236.640 C 183.409 229.144,171.463 229.894,167.514 237.913 L 166.200 240.581 166.000 258.590 L 165.800 276.600 158.900 276.709 L 152.000 276.819 152.000 248.355 L 152.000 219.891 155.700 220.110 C 162.164 220.491,166.000 222.901,166.000 226.580 C 166.000 227.522,166.181 227.419,168.361 225.239 C 173.293 220.307,182.796 217.890,190.400 219.632 M130.663 220.950 C 138.172 223.393,142.579 228.293,144.201 236.002 C 144.685 238.304,144.800 242.502,144.800 257.826 L 144.800 276.800 138.200 276.800 L 131.600 276.800 131.600 274.200 C 131.600 271.136,131.727 271.182,128.766 273.159 C 121.604 277.942,110.761 279.301,103.112 276.374 C 90.051 271.376,89.163 252.328,101.699 246.090 C 107.618 243.145,119.800 242.679,127.700 245.097 L 131.600 246.290 131.600 243.818 C 131.600 233.820,124.063 229.514,110.180 231.580 C 104.811 232.379,102.117 231.061,99.648 226.430 C 98.117 223.558,98.119 223.552,101.088 222.484 C 109.838 219.336,123.524 218.626,130.663 220.950 M229.400 250.562 C 217.169 253.585,219.350 268.480,232.023 268.480 C 240.843 268.480,246.334 263.929,246.721 256.299 L 246.898 252.798 245.047 251.979 C 240.976 250.179,233.641 249.514,229.400 250.562 M112.645 251.787 C 102.037 256.148,105.442 269.200,117.189 269.200 C 125.908 269.200,131.600 264.277,131.600 256.734 L 131.600 253.321 130.100 252.664 C 125.193 250.515,116.769 250.092,112.645 251.787 M140.408 350.701 C 138.460 351.679,137.329 353.565,137.003 356.378 C 136.735 358.685,136.690 358.758,135.463 358.877 C 133.471 359.071,133.504 362.533,135.500 362.725 L 136.800 362.851 136.800 371.618 L 136.800 380.385 137.738 380.620 C 138.254 380.750,139.379 380.798,140.238 380.728 L 141.800 380.600 141.908 371.717 L 142.015 362.835 144.908 362.717 L 147.800 362.600 147.800 360.800 L 147.800 359.000 144.900 358.882 L 142.000 358.765 142.000 357.244 C 142.000 355.121,143.039 354.277,145.705 354.234 L 147.800 354.200 147.923 352.499 C 148.105 349.989,143.850 348.971,140.408 350.701 M200.800 355.147 C 200.800 361.664,200.712 361.935,199.057 360.539 C 192.175 354.735,183.004 359.912,183.004 369.600 C 183.004 379.372,191.773 384.532,198.690 378.830 C 200.390 377.429,200.800 377.548,200.800 379.444 L 200.800 380.840 203.100 380.720 L 205.400 380.600 205.400 365.400 L 205.400 350.200 203.100 350.080 L 200.800 349.960 200.800 355.147 M125.600 352.582 L 125.600 354.800 128.421 354.800 L 131.242 354.800 131.121 352.700 L 131.000 350.600 128.300 350.482 L 125.600 350.363 125.600 352.582 M150.267 350.667 C 150.120 350.813,150.000 351.803,150.000 352.867 L 150.000 354.800 152.600 354.800 L 155.200 354.800 155.200 352.600 L 155.200 350.400 152.867 350.400 C 151.583 350.400,150.413 350.520,150.267 350.667 M50.891 351.966 C 39.969 356.008,38.049 371.492,47.600 378.500 C 52.438 382.049,60.013 381.897,65.500 378.140 C 67.979 376.443,68.080 375.835,66.173 374.085 L 64.746 372.775 63.273 373.941 C 56.108 379.612,46.614 375.070,46.672 366.000 C 46.726 357.451,54.825 352.976,62.201 357.417 C 65.009 359.108,64.715 359.128,66.376 357.129 L 67.752 355.472 66.376 354.316 C 62.837 351.342,55.562 350.238,50.891 351.966 M222.000 366.200 L 222.000 380.800 224.400 380.800 L 226.800 380.800 226.800 376.000 L 226.800 371.200 230.900 371.196 C 240.583 371.185,245.578 366.602,244.030 359.147 C 242.792 353.179,239.687 351.600,229.192 351.600 L 222.000 351.600 222.000 366.200 M111.200 355.167 C 111.200 358.276,110.963 358.800,109.557 358.800 C 108.435 358.800,108.400 358.861,108.400 360.800 C 108.400 362.753,108.428 362.800,109.592 362.800 C 111.123 362.800,111.153 362.951,111.290 371.259 C 111.429 379.648,112.186 380.800,117.561 380.800 C 121.121 380.800,122.000 380.273,122.000 378.141 L 122.000 376.410 119.765 376.505 C 116.212 376.656,115.952 376.116,116.090 368.843 L 116.200 363.000 119.100 362.882 L 122.000 362.765 122.000 360.800 L 122.000 358.835 119.100 358.718 L 116.200 358.600 116.082 355.700 L 115.965 352.800 113.582 352.800 L 111.200 352.800 111.200 355.167 M286.400 355.775 L 286.400 358.749 285.100 358.875 C 283.105 359.067,283.070 362.529,285.062 362.722 L 286.323 362.845 286.462 369.922 C 286.648 379.431,287.440 380.800,292.759 380.800 C 296.737 380.800,297.663 380.266,297.520 378.054 C 297.429 376.642,297.257 376.236,296.800 376.349 C 292.228 377.488,291.304 376.223,291.240 368.733 C 291.187 362.569,291.054 362.800,294.643 362.800 L 297.600 362.800 297.600 360.800 L 297.600 358.800 294.643 358.800 C 291.229 358.800,291.200 358.770,291.200 355.167 L 291.200 352.800 288.800 352.800 L 286.400 352.800 286.400 355.775 M236.287 356.668 C 238.326 357.636,239.282 359.359,239.081 361.704 C 238.772 365.285,236.254 366.778,230.500 366.791 L 226.800 366.800 226.800 361.400 L 226.800 356.000 230.840 356.000 C 233.784 356.000,235.261 356.181,236.287 356.668 M75.794 359.241 C 66.941 363.911,67.903 377.554,77.294 380.514 C 81.307 381.779,85.279 381.083,88.224 378.598 L 89.800 377.268 88.625 376.034 C 87.200 374.537,87.181 374.536,85.175 375.864 C 81.214 378.485,74.800 376.110,74.800 372.021 C 74.800 371.766,77.714 371.577,82.700 371.508 L 90.600 371.400 90.723 369.473 C 91.230 361.537,82.623 355.638,75.794 359.241 M103.794 358.778 C 102.898 359.141,100.400 361.569,100.400 362.076 C 100.400 362.254,100.220 362.400,100.000 362.400 C 99.780 362.400,99.600 361.590,99.600 360.600 L 99.600 358.800 96.994 358.800 L 94.387 358.800 94.494 369.700 L 94.600 380.600 96.162 380.728 C 99.654 381.014,99.600 381.108,99.600 374.776 C 99.600 367.248,100.933 364.683,105.434 363.550 L 107.200 363.105 107.200 360.753 L 107.200 358.400 105.900 358.425 C 105.185 358.439,104.237 358.598,103.794 358.778 M165.391 359.148 C 159.797 361.690,157.462 369.194,160.422 375.118 C 163.655 381.587,172.360 383.134,178.198 378.276 L 179.396 377.279 178.602 376.403 C 177.110 374.753,176.545 374.681,174.501 375.879 C 170.997 377.933,167.364 377.324,165.187 374.319 C 163.196 371.570,163.050 371.629,172.100 371.508 L 180.200 371.400 180.323 369.920 C 180.982 361.989,172.542 355.900,165.391 359.148 M251.800 358.674 C 250.346 359.004,247.600 360.104,247.606 360.354 C 247.609 360.489,247.867 361.320,248.178 362.200 C 248.770 363.875,248.827 363.893,251.400 363.231 C 255.316 362.223,259.142 363.073,259.945 365.128 C 260.720 367.112,260.680 367.816,259.800 367.644 C 251.131 365.949,245.800 368.446,245.800 374.200 C 245.800 380.649,253.513 383.465,259.200 379.093 L 260.200 378.324 260.404 379.462 C 260.601 380.563,260.685 380.600,263.004 380.600 L 265.400 380.600 265.521 373.600 C 265.746 360.599,261.874 356.388,251.800 358.674 M278.840 359.088 C 278.092 359.457,277.012 360.436,276.440 361.264 C 275.063 363.258,274.800 363.183,274.800 360.800 L 274.800 358.800 272.394 358.800 L 269.987 358.800 270.094 369.700 L 270.200 380.600 272.400 380.600 L 274.600 380.600 274.851 375.200 C 275.260 366.385,276.309 364.581,281.700 363.421 C 282.751 363.195,282.800 363.078,282.800 360.792 L 282.800 358.400 281.500 358.409 C 280.785 358.414,279.588 358.720,278.840 359.088 M309.400 359.028 C 308.740 359.370,307.705 360.123,307.100 360.700 L 306.000 361.750 306.000 360.256 L 306.000 358.762 303.500 358.881 L 301.000 359.000 301.000 369.800 L 301.000 380.600 303.400 380.600 L 305.800 380.600 306.000 373.068 L 306.200 365.537 307.694 364.168 C 309.985 362.070,313.202 362.316,315.000 364.727 C 315.712 365.683,315.822 366.610,316.000 373.200 L 316.200 380.600 318.400 380.600 L 320.600 380.600 320.600 371.934 L 320.600 363.267 319.400 361.575 C 317.264 358.563,312.589 357.372,309.400 359.028 M330.176 359.350 C 323.231 362.584,322.028 373.622,328.088 378.507 C 332.483 382.050,338.838 382.005,342.896 378.404 L 344.538 376.946 343.076 375.831 L 341.614 374.716 339.722 375.825 C 335.425 378.343,329.200 376.072,329.200 371.986 C 329.200 371.751,332.232 371.600,336.951 371.600 C 346.568 371.600,346.599 371.574,344.559 365.156 C 342.728 359.396,335.952 356.661,330.176 359.350 M357.582 359.241 C 356.802 359.693,355.812 360.589,355.382 361.231 C 354.303 362.841,354.000 362.699,354.000 360.581 L 354.000 358.762 351.500 358.881 L 349.000 359.000 349.000 369.800 L 349.000 380.600 351.500 380.719 L 354.000 380.838 354.009 375.119 C 354.021 367.142,355.269 364.735,359.977 363.606 L 362.000 363.120 362.000 360.760 L 362.000 358.400 360.500 358.409 C 359.675 358.414,358.362 358.789,357.582 359.241 M126.094 369.700 L 126.200 380.600 128.400 380.600 L 130.600 380.600 130.706 369.700 L 130.813 358.800 128.400 358.800 L 125.987 358.800 126.094 369.700 M150.400 369.820 L 150.400 380.840 152.700 380.720 L 155.000 380.600 155.106 369.700 L 155.213 358.800 152.806 358.800 L 150.400 358.800 150.400 369.820 M81.874 362.427 C 84.042 363.248,86.369 366.460,85.825 367.879 C 85.412 368.956,74.796 368.590,74.819 367.500 C 74.891 364.158,78.877 361.291,81.874 362.427 M172.010 362.805 C 173.895 363.767,174.858 365.110,174.940 366.891 L 175.000 368.200 169.692 368.312 C 163.656 368.439,163.416 368.313,164.743 365.712 C 166.442 362.381,169.097 361.319,172.010 362.805 M337.117 362.797 C 338.909 363.610,340.735 366.549,340.244 367.829 C 339.972 368.538,329.818 368.677,329.386 367.977 C 327.618 365.117,333.518 361.164,337.117 362.797 M195.745 362.777 C 200.844 363.961,202.332 371.519,198.182 375.162 C 192.773 379.911,185.313 373.279,188.403 366.469 C 189.867 363.243,192.357 361.991,195.745 362.777 M259.200 370.964 C 260.964 371.597,261.200 372.887,259.903 374.814 C 257.015 379.105,249.390 377.677,250.549 373.063 C 251.104 370.848,255.744 369.722,259.200 370.964 " stroke="none" fill="#fbfbfb" fill-rule="evenodd"></path><path id="path3" d="M111.100 8.300 C 159.995 8.356,240.005 8.356,288.900 8.300 C 337.795 8.244,297.790 8.198,200.000 8.198 C 102.210 8.198,62.205 8.244,111.100 8.300 M19.400 8.986 C 17.855 9.693,18.574 9.703,20.400 9.000 C 21.170 8.703,21.530 8.455,21.200 8.448 C 20.870 8.442,20.060 8.683,19.400 8.986 M379.600 9.000 C 381.426 9.703,382.145 9.693,380.600 8.986 C 379.940 8.683,379.130 8.442,378.800 8.448 C 378.470 8.455,378.830 8.703,379.600 9.000 M15.978 10.733 C 13.546 12.282,9.517 16.850,10.083 17.417 C 10.189 17.522,10.824 16.726,11.494 15.648 C 12.556 13.939,15.001 11.670,17.447 10.124 C 17.861 9.861,18.100 9.636,17.978 9.624 C 17.856 9.611,16.956 10.110,15.978 10.733 M382.000 9.779 C 382.000 9.889,382.551 10.264,383.224 10.612 C 385.093 11.579,387.530 13.937,388.671 15.885 C 389.235 16.848,389.792 17.541,389.908 17.425 C 390.243 17.091,388.054 14.152,386.193 12.436 C 384.611 10.978,382.000 9.324,382.000 9.779 M9.165 19.098 C 8.682 20.040,8.585 41.889,8.497 169.900 L 8.395 319.600 199.997 319.600 L 391.600 319.600 391.501 170.500 L 391.401 21.400 391.300 170.300 L 391.199 319.200 199.999 319.200 L 8.800 319.200 8.800 170.664 C 8.800 41.438,8.876 21.874,9.385 20.182 C 10.061 17.938,9.975 17.518,9.165 19.098 M390.434 19.200 C 390.446 19.530,390.611 20.160,390.800 20.600 L 391.144 21.400 391.166 20.600 C 391.178 20.160,391.013 19.530,390.800 19.200 C 390.455 18.667,390.415 18.667,390.434 19.200 M140.186 350.257 C 139.060 350.820,137.200 353.016,137.200 353.784 C 137.200 353.968,137.609 353.507,138.108 352.759 C 139.738 350.318,143.829 349.243,147.074 350.402 C 148.124 350.778,148.148 350.764,147.424 350.202 C 146.396 349.405,141.823 349.440,140.186 350.257 M200.667 349.867 C 200.520 350.013,200.400 352.533,200.400 355.467 C 200.400 360.711,200.215 361.423,199.176 360.171 C 197.636 358.316,191.852 357.148,189.825 358.282 C 189.380 358.531,189.957 358.596,191.567 358.480 C 194.928 358.237,196.506 358.622,198.559 360.189 C 200.788 361.891,200.800 361.863,200.800 355.132 L 200.800 349.929 203.201 350.064 C 204.521 350.139,205.601 350.065,205.601 349.900 C 205.600 349.529,201.035 349.498,200.667 349.867 M125.467 350.267 C 125.133 350.600,125.115 354.114,125.443 354.967 C 125.723 355.698,130.567 355.901,131.000 355.200 C 131.156 354.948,130.204 354.800,128.424 354.800 L 125.600 354.800 125.600 352.567 L 125.600 350.334 128.363 350.467 C 129.883 350.540,131.042 350.465,130.940 350.300 C 130.709 349.929,125.834 349.899,125.467 350.267 M150.078 350.334 C 149.721 350.567,149.595 351.421,149.678 353.037 L 149.800 355.400 152.600 355.400 L 155.400 355.400 155.400 352.800 L 155.400 350.200 153.000 350.097 C 151.680 350.040,150.365 350.146,150.078 350.334 M155.200 352.600 L 155.200 354.800 152.600 354.800 L 150.000 354.800 150.000 352.867 C 150.000 350.439,150.045 350.400,152.867 350.400 L 155.200 350.400 155.200 352.600 M52.138 351.106 C 51.884 351.268,53.892 351.400,56.600 351.400 C 59.308 351.400,61.316 351.268,61.062 351.106 C 60.808 350.944,58.800 350.812,56.600 350.812 C 54.400 350.812,52.392 350.944,52.138 351.106 M221.680 351.280 C 221.060 351.900,220.981 380.800,221.600 380.800 C 221.859 380.800,222.000 375.667,222.000 366.200 L 222.000 351.600 229.100 351.553 C 233.245 351.525,235.701 351.378,235.000 351.200 C 232.934 350.674,222.221 350.739,221.680 351.280 M49.623 352.041 C 46.811 353.164,42.841 357.441,42.235 360.000 C 42.105 360.550,42.355 360.227,42.790 359.283 C 43.818 357.054,47.498 353.390,49.683 352.419 C 51.438 351.640,51.390 351.335,49.623 352.041 M63.400 352.383 C 64.280 352.808,65.619 353.677,66.376 354.314 L 67.752 355.472 66.376 357.129 C 64.714 359.130,65.013 359.110,62.172 357.400 C 60.893 356.630,59.656 356.002,59.424 356.004 C 59.191 356.006,59.900 356.545,61.000 357.203 C 62.100 357.860,63.382 358.675,63.850 359.014 C 64.643 359.590,68.000 356.674,68.000 355.409 C 68.000 354.711,64.372 352.229,62.800 351.851 C 62.245 351.717,62.512 351.954,63.400 352.383 M110.974 352.523 C 110.856 352.832,110.823 354.235,110.902 355.642 L 111.046 358.200 111.123 355.500 L 111.200 352.800 113.582 352.800 L 115.965 352.800 116.082 355.700 L 116.200 358.600 119.100 358.718 L 122.000 358.835 122.000 360.800 L 122.000 362.765 119.100 362.882 L 116.200 363.000 116.090 368.843 C 115.952 376.116,116.212 376.656,119.765 376.505 L 122.000 376.410 122.000 378.144 C 122.000 379.547,121.828 379.961,121.100 380.312 C 120.506 380.598,120.411 380.755,120.820 380.773 C 121.828 380.817,122.400 379.940,122.400 378.353 C 122.400 375.871,122.241 375.732,119.624 375.921 C 116.461 376.150,116.347 375.896,116.489 368.905 L 116.600 363.400 119.400 363.200 L 122.200 363.000 122.200 360.800 L 122.200 358.600 119.400 358.400 L 116.600 358.200 116.400 355.200 L 116.200 352.200 113.695 352.081 C 111.830 351.992,111.135 352.105,110.974 352.523 M238.808 352.532 C 241.447 353.756,243.107 355.662,243.885 358.362 C 244.388 360.107,244.406 360.124,244.230 358.684 C 243.897 355.951,240.399 351.933,238.440 352.032 C 238.033 352.053,238.167 352.235,238.808 352.532 M286.243 352.633 C 286.109 352.981,286.000 354.421,286.000 355.833 L 286.000 358.400 284.800 358.400 C 284.140 358.400,283.600 358.544,283.600 358.720 C 283.600 358.896,284.230 358.966,285.000 358.876 L 286.400 358.712 286.400 355.756 L 286.400 352.800 288.800 352.800 L 291.200 352.800 291.200 355.167 C 291.200 358.803,291.209 358.812,294.743 358.721 L 297.800 358.641 294.900 358.503 L 292.000 358.365 292.000 355.662 C 292.000 354.094,291.799 352.759,291.520 352.480 C 290.772 351.732,286.541 351.855,286.243 352.633 M142.662 355.131 C 142.298 355.534,142.000 356.510,142.000 357.300 L 142.000 358.737 144.963 358.868 C 146.593 358.941,147.842 358.865,147.740 358.700 C 147.637 358.535,146.393 358.400,144.976 358.400 L 142.400 358.400 142.400 357.131 C 142.400 356.434,142.698 355.534,143.062 355.131 C 143.426 354.729,143.634 354.400,143.524 354.400 C 143.414 354.400,143.026 354.729,142.662 355.131 M136.585 356.563 C 136.354 358.102,136.167 358.400,135.435 358.400 C 134.208 358.400,133.600 359.145,133.600 360.647 C 133.600 362.632,133.964 363.200,135.235 363.200 L 136.384 363.200 136.492 371.867 C 136.575 378.502,136.720 380.558,137.110 380.637 C 137.391 380.694,137.436 380.649,137.210 380.537 C 136.949 380.407,136.800 377.163,136.800 371.592 L 136.800 362.851 135.500 362.725 C 133.515 362.534,133.469 359.071,135.449 358.878 C 136.606 358.766,137.827 355.694,137.031 354.898 C 136.937 354.804,136.736 355.553,136.585 356.563 M55.300 355.887 C 55.905 355.978,56.895 355.978,57.500 355.887 C 58.105 355.795,57.610 355.720,56.400 355.720 C 55.190 355.720,54.695 355.795,55.300 355.887 M226.800 361.400 L 226.800 366.800 230.500 366.772 C 232.535 366.756,234.558 366.604,234.995 366.433 C 235.432 366.263,233.857 366.209,231.495 366.314 L 227.200 366.505 227.200 361.452 L 227.200 356.400 230.500 356.402 C 238.221 356.407,241.548 360.718,237.077 364.923 C 236.375 365.584,236.162 365.933,236.604 365.699 C 239.010 364.428,239.934 360.896,238.469 358.568 C 237.227 356.593,235.466 356.000,230.840 356.000 L 226.800 356.000 226.800 361.400 M50.398 357.713 C 49.362 358.551,47.599 360.840,47.612 361.331 C 47.619 361.589,47.822 361.440,48.064 361.000 C 48.306 360.560,49.147 359.525,49.933 358.700 C 51.351 357.212,51.556 356.776,50.398 357.713 M78.507 358.002 C 75.688 358.418,76.265 358.600,80.405 358.600 C 82.571 358.600,84.131 358.489,83.872 358.353 C 83.054 357.925,80.267 357.743,78.507 358.002 M167.896 357.995 C 165.417 358.457,165.869 358.600,169.813 358.600 C 171.874 358.600,173.434 358.488,173.280 358.352 C 172.796 357.923,169.465 357.702,167.896 357.995 M311.280 358.001 C 309.157 358.494,309.464 358.600,313.013 358.600 C 314.854 358.600,316.234 358.488,316.080 358.351 C 315.576 357.903,312.628 357.688,311.280 358.001 M333.200 357.899 C 330.370 358.219,331.345 358.600,334.992 358.600 C 337.055 358.600,338.531 358.489,338.272 358.354 C 337.544 357.973,334.756 357.723,333.200 357.899 M104.046 358.363 C 103.706 358.579,104.207 358.633,105.346 358.505 L 107.200 358.296 107.200 360.700 L 107.200 363.105 105.351 363.571 C 103.070 364.145,103.193 364.382,105.600 364.049 L 107.400 363.800 107.518 360.900 L 107.635 358.000 106.118 358.006 C 105.283 358.009,104.351 358.170,104.046 358.363 M251.514 358.328 C 251.137 358.478,252.884 358.600,255.397 358.600 C 257.909 358.600,259.658 358.478,259.283 358.328 C 258.907 358.179,257.160 358.056,255.400 358.056 C 253.640 358.056,251.891 358.179,251.514 358.328 M279.431 358.350 C 279.312 358.543,280.021 358.609,281.007 358.498 L 282.800 358.296 282.800 360.740 C 282.800 363.081,282.754 363.195,281.700 363.427 C 279.831 363.840,279.749 363.936,281.236 363.968 C 283.292 364.014,284.405 361.051,283.186 358.774 C 282.751 357.961,279.872 357.636,279.431 358.350 M357.139 359.152 C 356.140 359.786,355.172 360.641,354.988 361.052 C 354.722 361.649,354.609 361.477,354.427 360.200 L 354.200 358.600 351.400 358.600 L 348.600 358.600 348.494 369.700 C 348.435 375.805,348.525 380.800,348.694 380.800 C 348.862 380.800,349.000 375.895,349.000 369.900 L 349.000 359.000 351.500 358.881 L 354.000 358.762 354.000 360.581 C 354.000 362.696,354.303 362.841,355.375 361.241 C 356.402 359.708,358.194 358.682,360.400 358.365 L 362.200 358.107 360.578 358.053 C 359.414 358.015,358.444 358.325,357.139 359.152 M94.000 369.582 C 94.000 375.752,94.135 380.800,94.300 380.800 C 94.465 380.800,94.549 375.850,94.488 369.800 L 94.375 358.800 96.988 358.800 L 99.600 358.800 99.600 360.600 C 99.600 361.590,99.780 362.400,100.000 362.400 C 100.220 362.400,100.400 362.250,100.400 362.067 C 100.400 361.883,101.075 361.049,101.900 360.212 C 102.908 359.190,103.105 358.845,102.500 359.160 C 102.005 359.417,101.285 360.111,100.900 360.702 L 100.200 361.776 100.000 360.188 L 99.800 358.600 96.900 358.482 L 94.000 358.365 94.000 369.582 M108.000 360.800 L 108.000 363.200 109.500 363.136 C 110.977 363.073,110.980 363.069,109.700 362.911 C 108.433 362.753,108.400 362.699,108.400 360.800 C 108.400 358.901,108.433 358.847,109.700 358.689 C 110.980 358.531,110.977 358.527,109.500 358.464 L 108.000 358.400 108.000 360.800 M125.600 369.600 C 125.600 375.760,125.735 380.800,125.900 380.800 C 126.065 380.800,126.149 375.850,126.088 369.800 L 125.975 358.800 128.400 358.800 L 130.825 358.800 130.712 369.800 C 130.651 375.850,130.735 380.800,130.900 380.800 C 131.065 380.800,131.200 375.760,131.200 369.600 L 131.200 358.400 128.400 358.400 L 125.600 358.400 125.600 369.600 M150.093 369.682 L 150.187 381.000 150.300 369.900 L 150.413 358.800 152.819 358.800 L 155.225 358.800 155.112 369.800 C 155.051 375.850,155.138 380.800,155.306 380.800 C 155.475 380.800,155.565 375.805,155.506 369.700 L 155.400 358.600 152.700 358.482 L 150.000 358.363 150.093 369.682 M269.600 369.600 C 269.600 375.760,269.735 380.800,269.900 380.800 C 270.065 380.800,270.149 375.850,270.088 369.800 L 269.975 358.800 272.388 358.800 L 274.800 358.800 274.800 360.800 C 274.800 361.996,274.978 362.800,275.243 362.800 C 275.486 362.800,275.576 362.515,275.443 362.167 C 275.309 361.819,275.200 360.829,275.200 359.967 L 275.200 358.400 272.400 358.400 L 269.600 358.400 269.600 369.600 M300.799 358.700 C 300.799 358.865,301.957 358.940,303.373 358.867 L 305.948 358.734 306.074 360.126 L 306.200 361.517 307.800 360.108 C 308.680 359.332,309.005 358.902,308.522 359.151 C 308.040 359.400,307.534 359.783,307.399 360.002 C 306.944 360.737,306.400 360.409,306.400 359.400 C 306.400 358.429,306.320 358.400,303.600 358.400 C 302.060 358.400,300.800 358.535,300.799 358.700 M75.200 359.082 C 73.765 359.607,70.693 363.138,70.225 364.800 C 70.070 365.350,70.486 364.880,71.148 363.755 C 72.264 361.861,73.582 360.502,75.446 359.324 C 76.254 358.813,76.167 358.729,75.200 359.082 M85.800 359.588 C 86.460 360.018,87.599 361.052,88.332 361.885 C 89.064 362.718,89.478 363.024,89.253 362.566 C 88.725 361.494,85.751 358.799,85.099 358.803 C 84.824 358.804,85.140 359.157,85.800 359.588 M163.281 359.987 C 162.379 360.641,161.443 361.586,161.200 362.087 C 160.808 362.897,160.862 362.881,161.679 361.942 C 162.185 361.361,163.300 360.416,164.156 359.842 C 165.012 359.269,165.534 358.800,165.316 358.800 C 165.098 358.800,164.182 359.334,163.281 359.987 M186.608 360.047 C 184.888 361.557,183.795 363.059,183.441 364.400 C 183.296 364.950,183.624 364.568,184.170 363.551 C 185.089 361.841,186.375 360.507,188.246 359.324 C 188.661 359.061,188.781 358.836,188.514 358.824 C 188.247 358.811,187.389 359.361,186.608 360.047 M248.432 359.306 C 247.899 359.578,247.390 360.070,247.301 360.400 C 247.193 360.800,247.249 360.847,247.470 360.541 C 247.651 360.289,248.430 359.808,249.200 359.474 C 249.970 359.139,250.330 358.853,250.000 358.839 C 249.670 358.824,248.964 359.034,248.432 359.306 M261.400 359.544 C 263.164 360.634,264.118 361.841,264.869 363.935 C 265.237 364.961,265.552 365.452,265.569 365.026 C 265.650 363.007,262.273 358.795,260.578 358.801 C 260.370 358.802,260.740 359.137,261.400 359.544 M276.895 360.168 C 276.074 360.920,275.492 361.610,275.601 361.701 C 275.711 361.792,276.475 361.177,277.300 360.333 C 279.162 358.430,278.906 358.326,276.895 360.168 M317.712 359.702 C 318.324 360.196,319.177 361.140,319.609 361.800 C 320.041 362.460,320.396 362.776,320.397 362.501 C 320.401 361.851,317.642 358.799,317.053 358.802 C 316.804 358.803,317.100 359.208,317.712 359.702 M340.687 359.964 C 342.537 361.304,343.778 362.919,344.621 365.083 C 345.109 366.335,345.171 366.390,344.978 365.400 C 344.641 363.674,342.643 360.748,341.087 359.700 C 339.131 358.383,338.804 358.600,340.687 359.964 M176.411 360.238 C 176.417 360.437,176.982 361.140,177.665 361.800 C 178.512 362.617,178.775 362.744,178.491 362.196 C 177.989 361.227,176.395 359.727,176.411 360.238 M326.791 361.471 C 325.521 362.918,324.183 365.517,324.530 365.864 C 324.628 365.961,324.908 365.465,325.153 364.762 C 325.398 364.059,326.241 362.700,327.026 361.742 C 328.761 359.625,328.588 359.425,326.791 361.471 M41.312 362.300 C 40.914 363.741,41.010 369.156,41.453 370.278 C 41.677 370.845,41.800 369.396,41.800 366.178 C 41.800 360.829,41.774 360.624,41.312 362.300 M247.818 362.200 C 247.947 362.860,248.331 363.670,248.671 364.000 C 249.225 364.537,249.247 364.516,248.886 363.800 C 248.664 363.360,248.280 362.550,248.033 362.000 C 247.597 361.030,247.590 361.036,247.818 362.200 M46.910 363.100 C 46.487 364.622,46.554 368.458,47.017 369.272 C 47.280 369.733,47.400 368.700,47.400 365.972 C 47.400 361.655,47.366 361.456,46.910 363.100 M79.050 362.351 C 78.577 362.537,79.094 362.655,80.450 362.671 C 81.905 362.688,82.341 362.593,81.800 362.376 C 80.805 361.978,80.017 361.971,79.050 362.351 M168.484 362.339 C 168.174 362.537,168.697 362.667,169.800 362.667 C 170.903 362.667,171.426 362.537,171.116 362.339 C 170.832 362.159,170.240 362.012,169.800 362.012 C 169.360 362.012,168.768 362.159,168.484 362.339 M333.000 362.565 C 332.340 362.858,331.350 363.609,330.800 364.234 C 329.873 365.287,329.911 365.276,331.314 364.085 C 332.807 362.818,333.435 362.628,335.800 362.732 C 336.823 362.776,336.882 362.731,336.200 362.420 C 335.089 361.915,334.391 361.946,333.000 362.565 M144.915 362.697 L 142.029 362.834 141.915 371.818 C 141.852 376.758,141.935 380.801,142.100 380.800 C 142.265 380.800,142.400 376.840,142.400 372.000 L 142.400 363.200 145.200 363.200 C 146.800 363.200,148.000 363.029,148.000 362.800 C 148.000 362.580,147.955 362.436,147.900 362.479 C 147.845 362.523,146.502 362.621,144.915 362.697 M283.600 362.880 C 283.600 363.056,284.135 363.200,284.790 363.200 L 285.979 363.200 286.101 369.300 L 286.222 375.400 286.311 369.144 L 286.400 362.888 285.000 362.724 C 284.230 362.634,283.600 362.704,283.600 362.880 M76.522 363.766 C 75.905 364.297,75.503 364.835,75.629 364.962 C 75.755 365.088,76.374 364.654,77.004 363.996 C 78.381 362.559,78.088 362.419,76.522 363.766 M83.829 364.081 C 84.457 364.896,85.058 365.475,85.165 365.369 C 85.272 365.262,84.758 364.595,84.023 363.887 L 82.687 362.600 83.829 364.081 M166.129 363.700 C 165.684 364.195,165.187 364.870,165.025 365.200 C 164.863 365.530,165.061 365.400,165.465 364.912 C 165.869 364.423,166.560 363.754,167.000 363.425 C 167.440 363.095,167.606 362.820,167.370 362.813 C 167.133 362.806,166.575 363.205,166.129 363.700 M173.100 363.898 C 173.815 364.571,174.400 365.349,174.400 365.627 C 174.400 365.906,174.514 366.019,174.654 365.879 C 175.030 365.504,173.738 363.701,172.700 363.152 C 172.072 362.820,172.192 363.045,173.100 363.898 M190.505 363.700 C 189.799 364.195,189.115 364.870,188.985 365.199 C 188.855 365.529,189.255 365.328,189.874 364.753 C 190.493 364.178,191.360 363.508,191.800 363.266 C 192.240 363.023,192.417 362.819,192.194 362.812 C 191.971 362.805,191.211 363.205,190.505 363.700 M196.576 363.413 C 197.004 363.736,197.492 364.000,197.662 364.000 C 197.832 364.000,198.428 364.672,198.986 365.493 C 199.544 366.314,200.000 366.743,200.000 366.446 C 200.000 365.733,197.047 362.796,196.347 362.813 C 195.983 362.821,196.060 363.022,196.576 363.413 M243.880 364.037 C 243.530 365.758,241.847 368.118,240.197 369.206 C 239.538 369.640,239.163 369.996,239.362 369.997 C 240.930 370.009,244.584 365.226,244.316 363.514 C 244.203 362.789,244.113 362.897,243.880 364.037 M251.280 363.195 C 250.554 363.367,249.834 363.639,249.680 363.800 C 249.526 363.962,250.030 363.937,250.800 363.747 C 253.831 362.996,257.843 363.311,258.991 364.391 C 259.680 365.039,259.957 365.153,259.791 364.721 C 259.174 363.112,254.880 362.342,251.280 363.195 M291.443 363.433 C 291.124 364.263,291.204 373.168,291.540 374.200 C 292.288 376.501,293.078 376.848,296.500 376.377 C 298.514 376.100,297.634 375.731,295.401 375.917 C 292.037 376.195,292.000 376.121,292.000 369.169 L 292.000 363.235 294.900 363.097 L 297.800 362.959 294.743 362.879 C 292.274 362.815,291.639 362.922,291.443 363.433 M307.694 364.168 L 306.200 365.537 306.000 373.169 C 305.890 377.367,305.935 380.801,306.100 380.801 C 306.265 380.800,306.401 377.605,306.401 373.700 C 306.403 365.723,306.746 364.507,309.308 363.393 C 310.069 363.062,310.310 362.825,309.894 362.816 C 309.506 362.807,308.516 363.416,307.694 364.168 M312.670 363.384 C 315.133 364.455,315.385 365.345,315.532 373.481 C 315.604 377.506,315.784 380.800,315.932 380.801 C 316.672 380.803,315.801 365.804,314.999 364.727 C 314.199 363.653,312.785 362.786,311.881 362.816 C 311.617 362.824,311.971 363.080,312.670 363.384 M338.300 364.147 C 339.015 364.961,339.600 365.832,339.600 366.081 C 339.600 366.330,339.703 366.430,339.829 366.304 C 340.222 365.911,338.838 363.648,337.896 363.145 C 337.179 362.761,337.259 362.961,338.300 364.147 M179.523 365.412 C 179.858 366.616,180.217 367.516,180.321 367.412 C 180.566 367.167,179.580 363.635,179.202 363.401 C 179.043 363.303,179.188 364.208,179.523 365.412 M320.600 372.012 C 320.600 376.845,320.735 380.799,320.900 380.799 C 321.273 380.800,321.246 364.859,320.872 363.912 C 320.722 363.534,320.600 367.179,320.600 372.012 M360.000 363.600 C 359.045 363.906,359.057 363.922,360.276 363.960 C 360.978 363.982,361.664 363.820,361.800 363.600 C 362.084 363.140,361.436 363.140,360.000 363.600 M89.630 363.820 C 89.647 364.029,89.916 364.830,90.227 365.600 L 90.793 367.000 90.554 365.600 C 90.342 364.352,89.551 362.829,89.630 363.820 M110.873 370.200 C 110.840 373.940,110.944 377.208,111.106 377.463 C 111.268 377.718,111.350 375.288,111.289 372.063 C 111.124 363.334,110.942 362.519,110.873 370.200 M356.674 365.300 C 355.951 366.015,355.728 366.313,356.179 365.962 C 356.631 365.612,357.445 365.027,357.989 364.662 C 358.533 364.298,358.755 364.000,358.483 364.000 C 358.211 364.000,357.397 364.585,356.674 365.300 M101.775 365.700 L 100.600 367.000 101.900 365.825 C 102.615 365.179,103.200 364.594,103.200 364.525 C 103.200 364.216,102.870 364.488,101.775 365.700 M276.947 365.828 C 276.206 366.614,275.607 367.559,275.616 367.928 C 275.626 368.350,275.868 368.152,276.266 367.400 C 276.614 366.740,277.372 365.801,277.950 365.314 C 278.527 364.827,278.841 364.422,278.647 364.414 C 278.453 364.406,277.688 365.043,276.947 365.828 M159.002 366.394 C 158.639 367.538,158.692 372.277,159.075 372.962 C 159.259 373.291,159.400 371.818,159.400 369.572 C 159.400 365.307,159.385 365.187,159.002 366.394 M182.643 366.233 C 182.301 367.123,182.351 372.504,182.706 373.062 C 182.868 373.316,183.000 371.741,183.000 369.562 C 183.000 365.279,183.002 365.297,182.643 366.233 M329.357 366.629 C 328.947 368.263,329.519 368.432,335.028 368.312 C 339.848 368.207,340.197 368.147,340.288 367.400 C 340.342 366.960,340.284 366.825,340.160 367.100 C 339.995 367.463,338.504 367.600,334.723 367.600 L 329.513 367.600 329.764 366.600 C 329.902 366.050,329.925 365.600,329.815 365.600 C 329.705 365.600,329.499 366.063,329.357 366.629 M85.408 366.700 C 85.654 367.600,85.653 367.600,80.456 367.600 C 75.843 367.600,75.238 367.521,75.076 366.900 C 74.963 366.469,74.875 366.623,74.846 367.300 L 74.800 368.400 80.213 368.400 C 85.948 368.400,86.637 368.161,85.614 366.524 C 85.212 365.881,85.189 365.900,85.408 366.700 M164.187 366.840 C 163.742 368.243,164.457 368.429,169.832 368.312 L 175.000 368.200 175.074 367.200 C 175.117 366.622,175.062 366.496,174.945 366.900 C 174.764 367.520,174.150 367.600,169.544 367.600 C 164.528 367.600,164.355 367.572,164.600 366.800 C 164.740 366.360,164.764 366.000,164.654 366.000 C 164.544 366.000,164.334 366.378,164.187 366.840 M69.443 367.033 C 69.123 367.865,69.182 371.613,69.528 372.485 C 69.678 372.862,69.800 371.647,69.800 369.785 C 69.800 366.109,69.799 366.104,69.443 367.033 M323.781 368.185 C 323.634 369.167,323.669 370.628,323.859 371.431 C 324.148 372.654,324.209 372.364,324.231 369.646 C 324.262 365.955,324.164 365.636,323.781 368.185 M187.852 367.700 C 186.431 373.003,191.684 378.353,196.395 376.402 C 197.661 375.878,200.000 373.493,200.000 372.726 C 200.000 372.481,199.465 373.018,198.812 373.920 C 195.122 379.014,188.232 375.991,188.281 369.300 C 188.301 366.596,188.225 366.310,187.852 367.700 M253.300 367.091 C 254.125 367.178,255.475 367.178,256.300 367.091 C 257.125 367.005,256.450 366.934,254.800 366.934 C 253.150 366.934,252.475 367.005,253.300 367.091 M90.784 369.200 L 90.600 371.400 82.700 371.508 C 75.507 371.607,74.803 371.679,74.832 372.308 C 74.851 372.726,74.943 372.802,75.065 372.500 C 75.217 372.124,77.197 372.000,83.046 372.000 C 91.761 372.000,91.338 372.160,91.108 368.949 L 90.969 367.000 90.784 369.200 M200.187 369.600 C 200.187 371.793,200.237 371.968,200.551 370.871 C 200.771 370.106,200.771 369.094,200.551 368.329 C 200.237 367.232,200.187 367.407,200.187 369.600 M249.600 367.528 C 248.272 368.130,246.743 369.360,246.334 370.157 C 246.023 370.760,246.283 370.637,247.250 369.721 C 247.992 369.018,249.230 368.170,250.000 367.837 C 250.770 367.504,251.130 367.237,250.800 367.244 C 250.470 367.251,249.930 367.379,249.600 367.528 M259.339 367.652 C 259.768 367.902,260.226 367.934,260.432 367.728 C 260.638 367.522,260.329 367.341,259.693 367.297 C 258.734 367.230,258.690 367.273,259.339 367.652 M354.439 368.460 C 354.187 369.182,354.031 372.042,354.072 375.160 L 354.143 380.600 354.400 374.600 C 354.542 371.300,354.799 368.285,354.972 367.900 C 355.144 367.515,355.194 367.200,355.082 367.200 C 354.970 367.200,354.681 367.767,354.439 368.460 M99.849 368.615 C 99.712 368.973,99.600 371.756,99.600 374.799 C 99.600 378.180,99.440 380.412,99.190 380.537 C 98.965 380.649,99.010 380.694,99.290 380.638 C 99.666 380.562,99.854 378.915,100.005 374.368 C 100.226 367.724,100.223 367.641,99.849 368.615 M237.000 370.624 C 235.400 371.186,235.400 371.186,236.788 370.985 C 237.551 370.875,238.352 370.608,238.568 370.393 C 239.046 369.914,239.000 369.921,237.000 370.624 M47.600 370.699 C 47.600 371.580,50.125 374.414,51.608 375.198 C 52.154 375.486,51.655 374.867,50.500 373.824 C 49.345 372.780,48.400 371.683,48.400 371.387 C 48.400 371.090,48.220 370.736,48.000 370.600 C 47.780 370.464,47.600 370.508,47.600 370.699 M253.339 370.706 C 253.085 370.868,254.308 371.005,256.056 371.011 C 257.804 371.017,258.911 370.895,258.517 370.739 C 257.558 370.361,253.918 370.337,253.339 370.706 M345.016 371.173 C 344.844 371.452,342.053 371.600,336.976 371.600 C 328.940 371.600,328.569 371.681,329.632 373.200 C 329.961 373.670,329.997 373.605,329.799 372.900 L 329.546 372.000 337.349 372.000 C 344.514 372.000,346.302 371.768,345.480 370.947 C 345.370 370.837,345.161 370.939,345.016 371.173 M172.100 371.500 C 163.549 371.623,163.263 371.697,164.602 373.424 C 165.166 374.150,165.179 374.129,164.812 373.100 L 164.420 372.000 172.410 372.000 C 177.470 372.000,180.400 371.853,180.400 371.600 C 180.400 371.380,180.355 371.241,180.300 371.291 C 180.245 371.341,176.555 371.435,172.100 371.500 M226.886 375.900 L 226.971 380.600 227.098 376.114 L 227.226 371.629 231.113 371.498 L 235.000 371.367 230.900 371.284 L 226.800 371.200 226.886 375.900 M245.443 371.833 C 245.105 372.712,245.150 376.102,245.506 376.662 C 245.668 376.916,245.800 375.791,245.800 374.162 C 245.800 370.931,245.797 370.910,245.443 371.833 M251.200 372.000 C 249.633 373.567,250.539 376.395,252.800 376.996 C 253.662 377.225,253.621 377.149,252.511 376.443 C 250.783 375.347,250.442 373.881,251.561 372.368 C 252.555 371.023,252.368 370.832,251.200 372.000 M259.958 371.529 C 260.344 371.799,260.439 372.333,260.265 373.260 C 260.069 374.304,260.106 374.443,260.433 373.888 C 260.990 372.943,260.749 371.503,260.000 371.301 C 259.501 371.166,259.494 371.205,259.958 371.529 M42.000 371.739 C 42.000 373.273,45.982 378.173,48.047 379.180 C 48.793 379.543,48.745 379.447,47.828 378.736 C 45.627 377.031,44.815 376.122,43.408 373.785 C 42.633 372.499,42.000 371.579,42.000 371.739 M274.724 376.201 C 274.656 378.731,274.735 380.801,274.900 380.801 C 275.065 380.800,275.200 378.730,275.200 376.200 C 275.200 370.252,274.885 370.252,274.724 376.201 M62.432 374.061 C 61.239 374.907,60.448 375.600,60.674 375.600 C 60.900 375.600,61.913 374.968,62.924 374.196 L 64.764 372.791 66.182 374.093 C 66.962 374.809,67.600 375.696,67.600 376.064 C 67.600 376.627,63.260 379.962,62.454 380.018 C 62.314 380.027,61.300 380.300,60.200 380.624 L 58.200 381.214 59.933 380.997 C 62.146 380.720,65.088 379.230,67.022 377.406 L 68.535 375.978 67.168 374.556 C 65.065 372.370,64.845 372.347,62.432 374.061 M75.200 373.502 C 75.200 374.000,76.768 375.939,76.787 375.463 C 76.794 375.278,76.440 374.669,76.000 374.109 C 75.560 373.550,75.200 373.276,75.200 373.502 M70.228 374.400 C 70.372 374.950,70.650 375.571,70.845 375.780 C 71.416 376.391,71.241 375.514,70.569 374.400 L 69.967 373.400 70.228 374.400 M324.400 373.753 C 324.400 374.182,325.590 376.400,325.821 376.400 C 325.931 376.400,325.723 375.815,325.359 375.100 C 324.617 373.640,324.400 373.336,324.400 373.753 M159.604 374.464 C 159.592 376.549,165.323 381.253,167.779 381.173 C 168.230 381.159,167.821 380.903,166.869 380.606 C 164.254 379.790,162.054 378.065,160.766 375.819 C 160.129 374.709,159.606 374.099,159.604 374.464 M183.393 374.800 C 183.554 375.350,183.956 376.070,184.286 376.400 C 184.750 376.863,184.728 376.680,184.193 375.600 C 183.308 373.816,183.021 373.529,183.393 374.800 M330.201 374.454 C 330.518 375.272,333.088 376.909,333.682 376.671 C 334.018 376.536,333.959 376.452,333.514 376.432 C 333.137 376.414,332.189 375.839,331.409 375.154 C 330.628 374.469,330.085 374.154,330.201 374.454 M86.100 374.665 C 85.825 374.776,85.600 375.033,85.600 375.237 C 85.600 375.440,85.959 375.383,86.398 375.109 C 87.096 374.673,87.357 374.775,88.498 375.931 L 89.800 377.251 88.200 378.657 C 87.320 379.430,86.960 379.884,87.400 379.666 C 87.840 379.448,88.706 378.737,89.324 378.087 L 90.448 376.906 88.867 375.653 C 87.272 374.390,87.012 374.297,86.100 374.665 M166.484 375.700 C 167.105 376.305,167.925 376.793,168.306 376.784 C 168.765 376.773,168.594 376.553,167.800 376.134 C 167.140 375.785,166.320 375.297,165.978 375.050 C 165.636 374.802,165.863 375.095,166.484 375.700 M175.374 374.842 C 175.224 375.085,174.359 375.621,173.451 376.033 C 172.543 376.445,172.070 376.785,172.400 376.789 C 172.730 376.793,173.720 376.352,174.600 375.810 C 175.480 375.268,176.321 374.819,176.469 374.812 C 176.870 374.794,179.200 376.821,179.200 377.188 C 179.200 377.806,176.177 379.799,174.203 380.481 C 173.101 380.862,172.570 381.180,173.021 381.187 C 174.175 381.205,177.681 379.391,178.806 378.193 L 179.748 377.191 178.396 375.795 C 177.033 374.390,175.879 374.025,175.374 374.842 M340.365 375.046 C 339.846 375.675,339.875 375.691,340.726 375.238 C 341.469 374.842,341.777 374.849,342.291 375.272 C 342.829 375.717,342.899 375.706,342.734 375.200 C 342.451 374.337,341.027 374.244,340.365 375.046 M258.491 375.801 C 257.771 376.313,256.453 376.856,255.564 377.006 C 254.674 377.156,254.039 377.372,254.151 377.485 C 254.613 377.947,258.378 376.675,259.228 375.770 C 260.342 374.585,260.190 374.591,258.491 375.801 M53.338 376.094 C 53.592 376.256,54.970 376.388,56.400 376.388 C 57.830 376.388,59.208 376.256,59.462 376.094 C 59.716 375.932,58.338 375.800,56.400 375.800 C 54.462 375.800,53.084 375.932,53.338 376.094 M77.776 376.178 C 78.204 376.520,78.834 376.786,79.176 376.768 C 79.715 376.741,79.718 376.707,79.200 376.514 C 78.870 376.392,78.240 376.126,77.800 375.924 C 77.013 375.562,77.012 375.566,77.776 376.178 M83.800 376.186 C 83.140 376.488,82.881 376.750,83.224 376.768 C 83.566 376.785,84.196 376.536,84.624 376.213 C 85.588 375.483,85.351 375.476,83.800 376.186 M338.200 376.214 C 337.540 376.517,337.281 376.772,337.624 376.782 C 337.966 376.792,338.596 376.536,339.024 376.213 C 339.972 375.496,339.769 375.496,338.200 376.214 M343.697 376.228 C 344.530 377.218,343.410 378.568,340.585 379.977 C 339.713 380.412,339.288 380.775,339.640 380.784 C 340.339 380.801,342.982 378.989,344.103 377.723 C 344.778 376.962,344.770 376.899,343.903 376.165 C 343.001 375.401,343.001 375.401,343.697 376.228 M71.577 377.009 C 72.734 378.845,77.907 381.827,78.649 381.084 C 78.745 380.989,77.998 380.679,76.990 380.397 C 75.860 380.081,74.376 379.181,73.118 378.051 C 71.997 377.042,71.303 376.573,71.577 377.009 M327.163 378.115 C 328.617 379.665,330.254 380.593,332.200 380.972 C 332.900 381.108,332.649 380.933,331.600 380.553 C 330.610 380.195,328.900 379.173,327.800 378.282 L 325.800 376.662 327.163 378.115 M185.030 377.700 C 185.142 377.975,185.721 378.544,186.317 378.965 C 187.398 379.729,187.398 379.728,186.225 378.465 C 184.942 377.084,184.719 376.941,185.030 377.700 M198.768 378.753 C 198.016 379.366,197.040 380.072,196.600 380.322 C 196.160 380.571,195.998 380.781,196.240 380.788 C 196.482 380.795,197.425 380.260,198.337 379.600 C 200.377 378.122,200.314 378.119,200.511 379.700 L 200.672 381.000 200.736 379.524 C 200.821 377.571,200.414 377.412,198.768 378.753 M246.402 378.227 C 247.133 379.438,249.227 380.754,250.814 381.001 C 252.028 381.190,251.983 381.145,250.446 380.635 C 249.482 380.315,248.065 379.456,247.298 378.726 C 246.494 377.962,246.115 377.750,246.402 378.227 M286.803 377.931 C 286.799 378.626,288.986 380.804,289.669 380.786 C 289.961 380.778,289.784 380.541,289.276 380.259 C 288.768 379.977,288.004 379.218,287.579 378.573 C 287.153 377.928,286.804 377.639,286.803 377.931 M111.815 378.863 C 112.373 380.232,114.184 380.992,117.000 381.038 C 118.606 381.064,118.947 381.022,117.800 380.938 C 114.867 380.725,114.194 380.511,112.829 379.363 C 112.151 378.793,111.695 378.568,111.815 378.863 M259.201 379.100 C 258.664 379.485,257.498 380.105,256.612 380.478 C 255.725 380.850,255.288 381.165,255.640 381.178 C 255.993 381.190,257.101 380.764,258.104 380.230 C 259.107 379.697,260.034 379.367,260.164 379.497 C 260.294 379.627,260.400 379.433,260.400 379.067 C 260.400 378.243,260.397 378.243,259.201 379.100 M50.008 380.181 C 50.563 380.482,51.733 380.840,52.608 380.975 C 53.890 381.173,53.733 381.065,51.800 380.417 C 48.998 379.477,48.625 379.428,50.008 380.181 M187.790 379.984 C 188.045 380.396,190.774 381.359,191.012 381.121 C 191.100 381.033,190.361 380.662,189.370 380.294 C 188.380 379.927,187.669 379.788,187.790 379.984 M296.652 380.281 C 296.498 380.436,294.983 380.678,293.286 380.821 L 290.200 381.079 292.800 381.122 C 294.872 381.155,299.051 380.159,297.367 380.032 C 297.128 380.015,296.807 380.126,296.652 380.281 " stroke="none" fill="#a6a8a8" fill-rule="evenodd"></path><path id="path4" d="M21.600 7.887 C 21.050 7.987,20.443 8.219,20.251 8.403 C 20.059 8.587,20.599 8.576,21.451 8.378 C 23.513 7.900,376.487 7.900,378.549 8.378 C 379.733 8.653,379.987 8.627,379.629 8.269 C 379.170 7.810,24.124 7.432,21.600 7.887 M17.900 9.076 C 17.515 9.176,17.200 9.432,17.200 9.643 C 17.200 9.865,17.582 9.830,18.100 9.560 C 19.600 8.779,19.545 8.646,17.900 9.076 M381.599 9.351 C 382.149 9.672,382.674 9.859,382.766 9.767 C 383.014 9.519,382.714 9.330,381.600 9.033 L 380.600 8.767 381.599 9.351 M14.800 11.103 C 13.265 12.303,11.600 13.988,11.600 14.342 C 11.600 14.465,12.365 13.836,13.300 12.942 C 14.235 12.049,15.445 11.022,15.989 10.659 C 16.533 10.297,16.803 10.002,16.589 10.004 C 16.375 10.007,15.570 10.501,14.800 11.103 M384.011 10.659 C 384.555 11.022,385.765 12.049,386.700 12.942 C 388.612 14.769,388.977 14.771,387.300 12.947 C 386.124 11.668,383.889 10.000,383.349 10.000 C 383.169 10.000,383.467 10.297,384.011 10.659 M9.211 18.171 C 8.617 19.734,8.734 19.980,9.447 18.665 C 9.786 18.040,9.964 17.430,9.842 17.309 C 9.721 17.188,9.437 17.576,9.211 18.171 M390.014 17.420 C 390.022 17.629,390.299 18.250,390.631 18.800 L 391.233 19.800 390.972 18.800 C 390.699 17.757,389.989 16.733,390.014 17.420 M8.198 21.700 C 8.079 22.195,8.031 89.470,8.091 171.200 L 8.200 319.800 200.000 319.800 L 391.800 319.800 391.901 170.621 C 391.956 88.572,391.866 21.306,391.701 21.141 C 391.535 20.975,391.446 88.061,391.502 170.220 L 391.603 319.600 200.000 319.600 L 8.397 319.600 8.498 170.200 C 8.554 88.030,8.558 20.800,8.508 20.800 C 8.457 20.800,8.318 21.205,8.198 21.700 M125.200 349.900 C 125.200 350.065,126.550 350.200,128.200 350.200 C 129.850 350.200,131.200 350.065,131.200 349.900 C 131.200 349.735,129.850 349.600,128.200 349.600 C 126.550 349.600,125.200 349.735,125.200 349.900 M149.449 350.217 C 149.098 351.130,149.138 355.114,149.500 355.339 C 149.665 355.442,149.740 354.380,149.667 352.979 C 149.513 350.046,149.775 349.844,153.427 350.075 L 155.400 350.200 155.400 352.901 C 155.400 354.386,155.543 355.601,155.718 355.601 C 155.892 355.600,155.982 354.295,155.918 352.700 L 155.800 349.800 152.749 349.684 C 150.234 349.588,149.654 349.682,149.449 350.217 M199.843 350.233 C 199.709 350.581,199.600 352.943,199.600 355.482 C 199.600 359.818,199.558 360.065,198.900 359.556 C 198.330 359.115,198.342 359.180,198.962 359.907 C 200.231 361.394,200.353 361.014,200.479 355.199 C 200.592 349.966,200.430 348.702,199.843 350.233 M205.695 365.100 L 205.600 380.800 203.000 380.800 L 200.400 380.800 200.400 379.600 C 200.400 378.246,199.954 378.066,199.162 379.100 C 198.867 379.485,198.788 379.662,198.987 379.493 C 199.185 379.325,199.575 379.730,199.854 380.393 C 200.345 381.562,200.445 381.600,202.993 381.600 C 206.320 381.600,206.028 383.263,205.900 364.999 L 205.790 349.400 205.695 365.100 M55.100 350.689 C 55.815 350.778,56.985 350.778,57.700 350.689 C 58.415 350.601,57.830 350.528,56.400 350.528 C 54.970 350.528,54.385 350.601,55.100 350.689 M51.000 351.085 C 50.560 351.191,50.020 351.460,49.800 351.684 C 49.530 351.958,49.725 351.995,50.400 351.797 C 52.471 351.189,52.955 350.615,51.000 351.085 M61.200 351.146 C 62.174 351.726,63.858 352.147,63.400 351.697 C 63.180 351.480,62.460 351.188,61.800 351.046 C 61.017 350.878,60.808 350.913,61.200 351.146 M236.000 351.387 C 238.672 352.091,238.651 352.088,238.180 351.633 C 237.971 351.431,236.900 351.163,235.800 351.037 L 233.800 350.808 236.000 351.387 M137.669 352.039 C 136.928 353.224,137.257 353.313,138.119 352.161 C 138.514 351.632,138.692 351.200,138.515 351.200 C 138.338 351.200,137.957 351.578,137.669 352.039 M116.400 355.099 L 116.600 358.200 119.501 358.400 C 121.096 358.510,122.401 358.465,122.401 358.300 C 122.400 358.135,121.140 358.000,119.600 358.000 L 116.800 358.000 116.800 355.000 C 116.800 353.350,116.665 352.000,116.500 351.999 C 116.335 351.999,116.290 353.394,116.400 355.099 M45.800 354.223 C 45.054 354.856,44.915 355.091,45.433 354.843 C 46.176 354.487,47.525 353.197,47.149 353.202 C 47.067 353.203,46.460 353.663,45.800 354.223 M66.900 354.144 C 68.288 355.428,68.307 355.305,66.356 357.744 L 64.712 359.800 66.556 357.825 C 68.749 355.477,68.799 355.120,67.100 353.991 L 65.800 353.127 66.900 354.144 M242.038 354.177 C 242.388 354.630,242.973 355.445,243.338 355.989 C 243.702 356.533,244.000 356.788,244.000 356.556 C 244.000 356.323,243.415 355.508,242.700 354.743 C 241.985 353.979,241.687 353.724,242.038 354.177 M136.667 354.267 C 136.520 354.413,136.415 354.998,136.434 355.567 C 136.468 356.581,136.475 356.579,136.821 355.420 C 137.185 354.203,137.131 353.802,136.667 354.267 M142.962 355.262 L 142.200 356.124 143.273 355.433 C 144.070 354.921,144.844 354.799,146.273 354.962 C 147.651 355.118,147.915 355.081,147.200 354.830 C 145.368 354.188,143.767 354.351,142.962 355.262 M53.338 356.306 C 53.083 356.468,54.460 356.600,56.398 356.600 C 58.335 356.600,59.713 356.468,59.460 356.306 C 59.207 356.144,57.830 356.012,56.400 356.012 C 54.970 356.012,53.592 356.144,53.338 356.306 M228.900 356.694 C 229.945 356.776,231.655 356.776,232.700 356.694 C 233.745 356.612,232.890 356.544,230.800 356.544 C 228.710 356.544,227.855 356.612,228.900 356.694 M106.531 357.889 L 107.661 358.055 107.531 360.977 L 107.400 363.899 109.000 363.695 C 111.092 363.427,111.307 363.200,109.467 363.200 L 108.000 363.200 108.000 360.800 L 108.000 358.400 109.467 358.400 C 111.732 358.400,110.892 358.120,108.000 357.911 C 106.570 357.807,105.909 357.797,106.531 357.889 M255.105 357.883 C 255.602 357.979,256.322 357.975,256.705 357.875 C 257.087 357.775,256.680 357.696,255.800 357.701 C 254.920 357.705,254.607 357.787,255.105 357.883 M281.400 357.885 C 282.060 357.976,282.825 358.343,283.100 358.701 C 283.389 359.078,283.600 359.152,283.600 358.876 C 283.600 358.614,284.185 358.377,284.900 358.350 C 286.038 358.306,285.975 358.260,284.400 357.980 C 283.410 357.803,282.060 357.673,281.400 357.690 L 280.200 357.720 281.400 357.885 M360.100 357.876 C 360.485 357.976,361.115 357.976,361.500 357.876 C 361.885 357.775,361.570 357.693,360.800 357.693 C 360.030 357.693,359.715 357.775,360.100 357.876 M75.600 358.600 C 75.050 358.914,74.780 359.172,75.000 359.172 C 75.220 359.172,75.850 358.914,76.400 358.600 C 76.950 358.286,77.220 358.028,77.000 358.028 C 76.780 358.028,76.150 358.286,75.600 358.600 M94.800 358.246 C 97.193 358.547,100.000 358.576,100.000 358.300 C 100.000 358.135,98.605 358.027,96.900 358.060 C 95.195 358.093,94.250 358.176,94.800 358.246 M125.200 369.557 C 125.200 379.727,125.276 381.144,125.833 381.357 C 126.861 381.752,130.732 381.634,131.000 381.200 C 131.156 380.948,130.204 380.800,128.424 380.800 L 125.600 380.800 125.600 369.618 L 125.600 358.435 128.500 358.297 L 131.400 358.159 128.300 358.079 L 125.200 358.000 125.200 369.557 M133.867 358.267 C 133.374 358.760,133.582 359.313,134.100 358.887 C 134.375 358.661,135.050 358.394,135.600 358.293 C 136.486 358.130,136.460 358.103,135.367 358.054 C 134.688 358.025,134.013 358.120,133.867 358.267 M143.000 358.239 C 144.847 358.539,148.000 358.578,148.000 358.300 C 148.000 358.135,146.695 358.025,145.100 358.054 C 143.505 358.084,142.560 358.167,143.000 358.239 M152.600 358.361 L 155.400 358.600 155.506 369.700 L 155.613 380.800 152.783 380.800 C 150.998 380.800,150.044 380.948,150.200 381.200 C 150.583 381.819,155.022 381.696,155.557 381.051 C 155.880 380.663,155.982 377.244,155.906 369.351 L 155.800 358.200 152.800 358.161 L 149.800 358.122 152.600 358.361 M164.200 358.990 C 162.152 360.251,162.460 360.258,165.000 359.009 C 166.100 358.468,166.730 358.020,166.400 358.015 C 166.070 358.009,165.080 358.448,164.200 358.990 M173.400 358.400 C 173.536 358.620,173.893 358.800,174.193 358.800 C 174.493 358.800,175.608 359.461,176.669 360.269 C 177.731 361.077,178.330 361.406,178.000 361.001 C 176.873 359.616,172.690 357.251,173.400 358.400 M250.200 358.400 C 249.696 358.617,249.622 358.744,250.000 358.744 C 250.330 358.744,250.960 358.589,251.400 358.400 C 251.904 358.183,251.978 358.056,251.600 358.056 C 251.270 358.056,250.640 358.211,250.200 358.400 M269.200 369.557 C 269.200 379.727,269.276 381.144,269.833 381.357 C 270.861 381.752,274.732 381.634,275.000 381.200 C 275.156 380.948,274.204 380.800,272.424 380.800 L 269.600 380.800 269.600 369.618 L 269.600 358.435 272.500 358.297 L 275.400 358.159 272.300 358.079 L 269.200 358.000 269.200 369.557 M277.151 359.642 C 275.867 360.846,275.783 360.980,276.838 360.142 C 277.629 359.514,278.619 358.786,279.038 358.524 C 279.457 358.261,279.598 358.036,279.351 358.024 C 279.105 358.011,278.115 358.739,277.151 359.642 M294.700 358.288 L 297.600 358.435 297.600 360.800 L 297.600 363.165 294.700 363.312 L 291.800 363.460 295.000 363.430 L 298.200 363.400 298.200 360.800 L 298.200 358.200 295.000 358.170 L 291.800 358.140 294.700 358.288 M300.667 358.267 C 300.333 358.600,300.311 380.102,300.643 380.967 C 300.826 381.444,301.459 381.600,303.210 381.600 C 307.051 381.600,306.812 382.141,306.710 373.657 L 306.619 366.200 306.501 373.500 L 306.382 380.800 303.591 380.800 L 300.800 380.800 300.800 369.600 L 300.800 358.400 303.600 358.400 C 306.320 358.400,306.400 358.429,306.400 359.400 C 306.400 360.412,306.945 360.736,307.402 359.996 C 307.540 359.774,308.315 359.242,309.126 358.814 C 309.937 358.386,310.330 358.031,310.000 358.027 C 309.670 358.022,308.950 358.370,308.400 358.800 C 307.139 359.786,306.942 359.786,306.684 358.800 C 306.473 357.993,301.390 357.543,300.667 358.267 M329.765 358.717 C 328.204 359.580,326.668 360.824,326.203 361.600 C 326.005 361.930,326.540 361.592,327.393 360.850 C 328.245 360.107,329.540 359.250,330.271 358.945 C 331.002 358.639,331.600 358.302,331.600 358.195 C 331.600 357.854,331.034 358.014,329.765 358.717 M339.200 358.669 C 339.970 359.002,340.915 359.555,341.300 359.899 C 341.685 360.243,342.000 360.349,342.000 360.136 C 342.000 359.658,339.097 357.988,338.346 358.033 C 338.045 358.051,338.430 358.337,339.200 358.669 M348.400 358.300 C 348.400 358.465,349.750 358.600,351.400 358.600 C 353.050 358.600,354.400 358.465,354.400 358.300 C 354.400 358.135,353.050 358.000,351.400 358.000 C 349.750 358.000,348.400 358.135,348.400 358.300 M49.077 359.515 C 48.274 360.402,47.004 363.368,47.579 363.013 C 47.811 362.870,48.000 362.519,48.000 362.232 C 48.000 361.946,48.445 361.057,48.988 360.256 C 50.062 358.674,50.096 358.389,49.077 359.515 M317.600 358.922 C 317.600 358.992,318.163 359.579,318.850 360.225 C 319.725 361.048,319.947 361.148,319.591 360.559 C 319.151 359.833,317.600 358.557,317.600 358.922 M41.600 360.400 C 41.321 361.074,41.186 361.719,41.300 361.833 C 41.414 361.947,41.709 361.462,41.956 360.756 C 42.538 359.086,42.259 358.808,41.600 360.400 M72.581 360.700 C 71.779 361.525,70.938 362.560,70.712 363.000 C 70.255 363.893,70.353 363.803,72.789 361.100 C 74.821 358.846,74.668 358.552,72.581 360.700 M87.600 360.600 C 88.962 362.006,89.200 362.182,89.200 361.787 C 89.200 361.482,86.825 359.200,86.508 359.200 C 86.362 359.200,86.854 359.830,87.600 360.600 M100.801 360.198 C 100.286 360.748,99.952 361.285,100.060 361.394 C 100.168 361.502,100.654 361.052,101.140 360.395 C 102.217 358.939,102.066 358.852,100.801 360.198 M185.896 360.216 C 185.293 360.775,184.800 361.349,184.800 361.491 C 184.800 361.633,185.340 361.232,186.000 360.600 C 187.103 359.544,187.372 359.200,187.096 359.200 C 187.039 359.200,186.499 359.657,185.896 360.216 M244.406 360.900 C 244.403 361.945,244.580 362.800,244.800 362.800 C 245.311 362.800,245.311 360.391,244.800 359.600 C 244.520 359.166,244.411 359.526,244.406 360.900 M247.300 359.465 C 246.690 359.711,246.660 360.787,247.241 361.600 C 247.579 362.073,247.623 361.993,247.451 361.221 C 247.332 360.682,247.428 360.007,247.666 359.721 C 248.124 359.169,248.091 359.146,247.300 359.465 M262.174 359.558 C 262.323 359.799,262.816 360.195,263.271 360.438 C 263.862 360.754,264.020 360.756,263.826 360.442 C 263.677 360.201,263.184 359.805,262.729 359.562 C 262.138 359.246,261.980 359.244,262.174 359.558 M238.501 361.400 C 238.505 362.280,238.587 362.593,238.683 362.095 C 238.779 361.598,238.775 360.878,238.675 360.495 C 238.575 360.113,238.496 360.520,238.501 361.400 M342.800 360.944 C 342.800 361.108,343.250 361.905,343.800 362.714 C 344.350 363.523,344.800 363.999,344.800 363.771 C 344.800 363.542,344.350 362.745,343.800 362.000 C 343.250 361.255,342.800 360.779,342.800 360.944 M320.449 362.809 C 321.054 364.600,321.395 364.948,321.028 363.400 C 320.871 362.740,320.571 362.024,320.361 361.809 C 320.150 361.594,320.190 362.044,320.449 362.809 M160.155 363.012 C 159.790 363.569,159.570 364.104,159.667 364.200 C 159.763 364.297,160.158 363.841,160.544 363.188 C 161.398 361.742,161.081 361.599,160.155 363.012 M133.606 362.900 C 133.601 363.454,133.913 363.587,135.100 363.540 C 136.460 363.486,136.488 363.464,135.401 363.304 C 134.742 363.207,134.070 362.919,133.907 362.664 C 133.716 362.363,133.610 362.446,133.606 362.900 M283.064 362.977 C 282.712 363.894,282.672 363.879,284.600 363.570 C 286.069 363.334,286.097 363.309,284.933 363.257 C 284.237 363.226,283.595 362.984,283.507 362.720 C 283.411 362.434,283.233 362.537,283.064 362.977 M77.549 363.465 C 77.047 364.074,77.085 364.087,78.000 363.611 C 79.341 362.914,79.442 362.800,78.716 362.800 C 78.376 362.800,77.851 363.099,77.549 363.465 M82.200 363.268 C 82.640 363.512,83.360 364.001,83.800 364.353 C 84.345 364.790,84.291 364.645,83.630 363.897 C 83.097 363.294,82.377 362.805,82.030 362.812 C 81.553 362.821,81.594 362.932,82.200 363.268 M119.400 363.171 L 116.600 363.400 116.584 369.000 L 116.567 374.600 116.695 369.100 L 116.822 363.600 119.611 363.600 C 121.204 363.600,122.400 363.428,122.400 363.200 C 122.400 362.980,122.355 362.832,122.300 362.871 C 122.245 362.909,120.940 363.044,119.400 363.171 M191.196 363.700 C 189.718 364.706,188.127 366.660,188.490 367.024 C 188.621 367.154,188.969 366.768,189.264 366.166 C 190.172 364.312,191.797 363.400,194.191 363.400 C 195.364 363.400,196.240 363.265,196.138 363.100 C 195.721 362.425,192.494 362.816,191.196 363.700 M309.800 363.182 C 309.232 363.414,309.581 363.509,311.000 363.509 C 312.419 363.509,312.768 363.414,312.200 363.182 C 311.760 363.003,311.220 362.856,311.000 362.856 C 310.780 362.856,310.240 363.003,309.800 363.182 M336.200 363.085 C 336.640 363.191,337.540 363.755,338.200 364.339 L 339.400 365.400 338.225 364.100 C 337.563 363.367,336.690 362.820,336.225 362.846 C 335.421 362.892,335.421 362.898,336.200 363.085 M143.700 363.491 C 144.525 363.578,145.875 363.578,146.700 363.491 C 147.525 363.405,146.850 363.334,145.200 363.334 C 143.550 363.334,142.875 363.405,143.700 363.491 M253.500 363.489 C 254.215 363.578,255.385 363.578,256.100 363.489 C 256.815 363.401,256.230 363.328,254.800 363.328 C 253.370 363.328,252.785 363.401,253.500 363.489 M165.600 364.800 C 165.130 365.460,164.836 366.000,164.946 366.000 C 165.056 366.000,165.530 365.460,166.000 364.800 C 166.470 364.140,166.764 363.600,166.654 363.600 C 166.544 363.600,166.070 364.140,165.600 364.800 M173.197 364.196 C 173.469 364.524,173.933 365.469,174.228 366.296 C 174.547 367.190,174.771 367.476,174.781 367.000 C 174.797 366.179,173.414 363.600,172.957 363.600 C 172.817 363.600,172.925 363.868,173.197 364.196 M182.844 364.844 C 182.598 365.551,182.466 366.200,182.552 366.285 C 182.638 366.371,182.909 365.862,183.156 365.156 C 183.402 364.449,183.534 363.800,183.448 363.715 C 183.362 363.629,183.091 364.138,182.844 364.844 M248.000 363.933 C 248.000 364.666,249.184 364.982,249.727 364.394 C 250.099 363.991,250.061 363.931,249.549 364.110 C 249.191 364.235,248.696 364.136,248.449 363.889 C 248.117 363.557,248.000 363.569,248.000 363.933 M104.000 364.281 C 102.603 364.790,99.828 368.000,100.786 368.000 C 101.014 368.000,101.200 367.746,101.200 367.436 C 101.200 366.748,103.440 364.800,104.231 364.800 C 104.544 364.800,104.800 364.620,104.800 364.400 C 104.800 364.180,104.755 364.014,104.700 364.032 C 104.645 364.049,104.330 364.161,104.000 364.281 M278.976 364.587 C 278.549 364.910,278.391 365.180,278.624 365.187 C 278.856 365.194,279.396 364.936,279.824 364.613 C 280.251 364.290,280.409 364.020,280.176 364.013 C 279.944 364.006,279.404 364.264,278.976 364.587 M75.755 365.412 C 75.390 365.969,75.187 366.521,75.304 366.637 C 75.421 366.754,75.792 366.299,76.128 365.625 C 76.868 364.140,76.665 364.024,75.755 365.412 M259.201 364.879 C 260.423 366.354,259.732 366.695,255.900 366.507 C 253.865 366.407,251.750 366.505,251.200 366.725 C 250.456 367.022,250.967 367.072,253.200 366.919 C 254.850 366.806,257.142 366.888,258.294 367.101 L 260.387 367.488 260.144 366.444 C 260.010 365.870,259.654 365.174,259.352 364.899 C 259.007 364.584,258.951 364.576,259.201 364.879 M265.691 372.500 L 265.600 380.800 263.047 380.800 C 260.751 380.800,260.464 380.709,260.204 379.900 C 259.953 379.118,259.890 379.094,259.725 379.719 C 259.371 381.054,260.333 381.600,263.041 381.600 C 266.214 381.600,266.063 382.107,265.904 372.000 L 265.782 364.200 265.691 372.500 M324.276 364.676 C 324.164 364.858,323.964 365.725,323.831 366.603 L 323.590 368.200 324.177 366.416 C 324.717 364.777,324.768 363.880,324.276 364.676 M330.511 364.900 C 330.039 365.510,329.558 366.800,329.802 366.800 C 329.900 366.800,330.259 366.260,330.600 365.600 C 331.239 364.365,331.194 364.017,330.511 364.900 M90.672 365.800 C 90.852 366.460,91.000 368.108,91.000 369.462 C 91.000 370.816,91.159 371.825,91.353 371.705 C 91.843 371.403,91.359 365.597,90.799 365.047 C 90.459 364.714,90.427 364.905,90.672 365.800 M69.400 366.000 C 69.250 366.473,69.217 366.950,69.327 367.060 C 69.437 367.170,69.650 366.873,69.800 366.400 C 69.950 365.927,69.983 365.450,69.873 365.340 C 69.763 365.230,69.550 365.527,69.400 366.000 M356.129 366.100 C 355.450 366.855,354.357 368.977,354.956 368.377 C 355.314 368.020,357.179 365.200,357.058 365.200 C 356.993 365.200,356.575 365.605,356.129 366.100 M180.396 368.918 L 180.593 372.200 180.715 369.239 C 180.782 367.610,180.694 366.133,180.519 365.957 C 180.343 365.780,180.288 367.113,180.396 368.918 M242.600 367.324 C 241.940 368.208,240.717 369.284,239.882 369.715 C 239.047 370.145,238.458 370.592,238.574 370.707 C 238.942 371.075,241.896 368.883,243.023 367.405 C 243.622 366.620,244.041 365.919,243.956 365.847 C 243.870 365.775,243.260 366.439,242.600 367.324 M199.533 368.949 C 199.621 370.684,199.491 372.290,199.219 372.849 C 198.792 373.725,198.802 373.742,199.349 373.063 C 200.218 371.984,200.519 369.526,200.012 367.645 C 199.410 365.408,199.361 365.541,199.533 368.949 M228.912 366.295 C 229.964 366.377,231.584 366.376,232.512 366.292 C 233.440 366.208,232.580 366.141,230.600 366.142 C 228.620 366.143,227.860 366.212,228.912 366.295 M345.400 369.238 C 345.400 370.757,345.535 372.000,345.700 372.000 C 345.865 372.000,346.000 370.841,346.000 369.424 C 346.000 368.007,345.865 366.764,345.700 366.662 C 345.535 366.560,345.400 367.719,345.400 369.238 M158.493 368.400 C 158.493 369.170,158.575 369.485,158.676 369.100 C 158.776 368.715,158.776 368.085,158.676 367.700 C 158.575 367.315,158.493 367.630,158.493 368.400 M315.290 374.057 C 315.212 380.177,315.284 381.147,315.833 381.357 C 316.861 381.752,320.732 381.634,321.000 381.200 C 321.156 380.948,320.207 380.800,318.433 380.800 L 315.619 380.800 315.499 373.900 L 315.380 367.000 315.290 374.057 M275.600 369.000 C 275.336 369.799,275.215 370.548,275.331 370.664 C 275.447 370.780,275.730 370.193,275.960 369.360 C 276.190 368.527,276.311 367.778,276.229 367.696 C 276.147 367.614,275.864 368.201,275.600 369.000 M245.463 370.883 C 245.138 372.125,245.385 372.189,245.926 371.002 C 246.177 370.451,246.228 370.000,246.038 370.000 C 245.848 370.000,245.589 370.397,245.463 370.883 M231.000 371.600 L 227.000 371.845 230.800 371.875 C 232.890 371.892,235.140 371.768,235.800 371.600 C 237.239 371.234,236.975 371.234,231.000 371.600 M258.033 371.344 C 258.125 371.423,258.740 371.608,259.400 371.756 C 260.276 371.952,260.438 371.915,260.000 371.618 C 259.460 371.253,257.632 370.998,258.033 371.344 M323.831 372.600 C 323.958 373.480,324.222 374.365,324.417 374.566 C 324.612 374.767,324.588 374.227,324.362 373.366 C 323.761 371.065,323.568 370.788,323.831 372.600 M49.800 373.200 C 50.659 374.080,51.452 374.800,51.562 374.800 C 51.672 374.800,51.059 374.080,50.200 373.200 C 49.341 372.320,48.548 371.600,48.438 371.600 C 48.328 371.600,48.941 372.320,49.800 373.200 M63.200 373.260 L 61.800 374.499 63.259 373.460 L 64.719 372.421 65.859 373.286 L 67.000 374.150 66.030 373.075 C 64.838 371.754,64.908 371.749,63.200 373.260 M69.245 372.600 C 69.236 373.040,69.486 373.850,69.800 374.400 C 70.513 375.647,70.513 375.051,69.800 373.200 C 69.447 372.283,69.255 372.076,69.245 372.600 M188.953 373.001 C 189.264 373.661,189.935 374.561,190.445 375.001 C 191.340 375.773,191.338 375.757,190.386 374.554 C 189.844 373.868,189.172 372.968,188.894 372.554 C 188.596 372.109,188.620 372.292,188.953 373.001 M329.867 373.060 C 329.980 373.533,330.631 374.433,331.314 375.060 L 332.555 376.200 331.578 374.954 C 331.040 374.268,330.389 373.368,330.131 372.954 C 329.691 372.248,329.675 372.255,329.867 373.060 M75.518 373.400 C 76.010 374.345,77.520 376.000,77.890 376.000 C 78.033 376.000,77.622 375.415,76.978 374.700 C 76.333 373.985,75.648 373.220,75.454 373.000 C 75.261 372.780,75.289 372.960,75.518 373.400 M182.433 373.074 C 182.384 373.782,183.190 375.743,183.431 375.502 C 183.546 375.387,183.376 374.687,183.053 373.947 C 182.730 373.206,182.451 372.813,182.433 373.074 M42.400 373.484 C 42.400 374.031,44.500 376.872,45.433 377.588 C 46.059 378.067,46.042 377.994,45.342 377.188 C 44.870 376.645,44.015 375.500,43.442 374.644 C 42.869 373.788,42.400 373.266,42.400 373.484 M165.164 373.933 C 165.380 374.336,165.881 374.918,166.278 375.226 C 166.969 375.762,166.970 375.751,166.300 374.962 C 165.915 374.508,165.600 373.926,165.600 373.669 C 165.600 373.411,165.414 373.200,165.186 373.200 C 164.908 373.200,164.901 373.442,165.164 373.933 M259.727 373.900 C 259.590 374.285,259.191 374.960,258.839 375.400 C 258.211 376.186,258.215 376.187,259.060 375.474 C 259.533 375.075,260.011 374.400,260.123 373.974 C 260.375 373.009,260.063 372.951,259.727 373.900 M175.170 374.697 C 174.466 375.493,174.428 375.603,175.031 375.097 C 176.229 374.093,176.780 374.218,178.483 375.881 C 180.141 377.500,180.562 377.523,179.070 375.914 C 177.027 373.709,176.256 373.468,175.170 374.697 M87.656 374.766 C 88.175 375.187,88.690 375.442,88.799 375.333 C 89.034 375.100,87.615 374.000,87.079 374.000 C 86.877 374.000,87.136 374.345,87.656 374.766 M197.400 375.050 C 196.681 375.662,196.534 375.905,197.033 375.657 C 197.766 375.293,199.141 373.976,198.749 374.014 C 198.667 374.022,198.060 374.488,197.400 375.050 M59.800 375.200 C 58.920 375.607,58.341 375.954,58.513 375.970 C 58.987 376.015,61.600 374.872,61.600 374.620 C 61.600 374.349,61.723 374.310,59.800 375.200 M52.220 375.155 C 52.429 375.350,53.050 375.628,53.600 375.772 L 54.600 376.033 53.600 375.431 C 52.486 374.759,51.609 374.584,52.220 375.155 M342.813 375.100 C 342.819 375.265,343.314 375.746,343.913 376.168 L 345.000 376.936 344.030 375.868 C 343.011 374.746,342.792 374.607,342.813 375.100 M286.198 376.565 C 286.293 377.426,286.562 378.322,286.796 378.556 C 287.097 378.857,287.108 378.632,286.834 377.791 C 286.621 377.136,286.352 376.240,286.236 375.800 C 286.120 375.360,286.103 375.704,286.198 376.565 M70.400 375.938 C 70.400 376.124,70.788 376.619,71.262 377.038 L 72.124 377.800 71.416 376.700 C 70.686 375.566,70.400 375.351,70.400 375.938 M81.200 376.400 L 79.400 376.680 81.000 376.734 C 81.880 376.763,82.870 376.613,83.200 376.400 C 83.530 376.187,83.620 376.037,83.400 376.066 C 83.180 376.096,82.190 376.246,81.200 376.400 M160.328 376.600 C 161.014 377.961,164.439 380.802,165.389 380.799 C 165.615 380.798,165.170 380.428,164.400 379.978 C 163.630 379.527,162.308 378.403,161.462 377.479 C 160.617 376.556,160.106 376.160,160.328 376.600 M168.446 376.437 C 168.965 376.765,172.329 376.972,171.967 376.653 C 171.875 376.572,170.921 376.412,169.846 376.296 C 168.651 376.168,168.107 376.222,168.446 376.437 M183.962 376.729 C 184.205 377.184,184.601 377.677,184.842 377.826 C 185.156 378.020,185.154 377.862,184.838 377.271 C 184.595 376.816,184.199 376.323,183.958 376.174 C 183.644 375.980,183.646 376.138,183.962 376.729 M193.505 376.283 C 194.002 376.379,194.722 376.375,195.105 376.275 C 195.487 376.175,195.080 376.096,194.200 376.101 C 193.320 376.105,193.007 376.187,193.505 376.283 M245.212 376.600 C 245.195 377.637,248.014 380.800,248.956 380.800 C 249.194 380.800,248.817 380.395,248.118 379.900 C 247.419 379.405,246.480 378.370,246.033 377.600 C 245.585 376.830,245.215 376.380,245.212 376.600 M253.200 376.800 C 253.976 377.301,254.400 377.301,254.400 376.800 C 254.400 376.580,253.995 376.403,253.500 376.406 C 252.772 376.411,252.715 376.486,253.200 376.800 M254.990 376.816 C 254.821 377.089,255.123 377.138,255.866 376.960 C 257.399 376.592,257.544 376.400,256.290 376.400 C 255.717 376.400,255.132 376.587,254.990 376.816 M334.700 376.682 C 335.195 376.778,336.005 376.778,336.500 376.682 C 336.995 376.587,336.590 376.509,335.600 376.509 C 334.610 376.509,334.205 376.587,334.700 376.682 M88.975 378.500 L 87.800 379.800 89.100 378.625 C 90.312 377.530,90.584 377.200,90.275 377.200 C 90.206 377.200,89.621 377.785,88.975 378.500 M111.033 378.000 C 111.330 379.114,111.519 379.414,111.767 379.166 C 111.859 379.074,111.672 378.549,111.351 377.999 L 110.767 377.000 111.033 378.000 M326.456 377.941 C 326.710 378.348,327.297 378.911,327.759 379.191 C 328.348 379.547,328.248 379.325,327.425 378.450 C 326.088 377.027,325.786 376.869,326.456 377.941 M342.849 378.840 C 341.885 379.698,341.255 380.400,341.449 380.400 C 341.908 380.399,344.990 377.655,344.769 377.443 C 344.676 377.353,343.812 377.982,342.849 378.840 M73.215 379.184 C 73.977 379.835,74.773 380.375,74.985 380.384 C 75.197 380.393,74.747 379.867,73.985 379.216 C 73.223 378.565,72.427 378.025,72.215 378.016 C 72.003 378.007,72.453 378.533,73.215 379.184 M176.820 379.631 C 175.840 380.274,175.214 380.800,175.427 380.800 C 175.864 380.800,178.800 378.872,178.800 378.586 C 178.800 378.329,178.814 378.322,176.820 379.631 M185.200 378.547 C 185.200 378.757,188.330 380.800,188.651 380.800 C 188.799 380.800,188.175 380.260,187.263 379.600 C 185.695 378.464,185.200 378.211,185.200 378.547 M63.200 380.000 C 62.430 380.422,61.944 380.774,62.120 380.783 C 62.544 380.805,64.800 379.632,64.800 379.390 C 64.800 379.128,64.777 379.137,63.200 380.000 M96.887 380.718 C 95.166 380.787,94.071 380.992,94.211 381.218 C 94.535 381.742,99.489 381.703,99.816 381.173 C 100.179 380.587,100.168 380.585,96.887 380.718 M136.531 381.000 C 136.706 381.529,141.608 381.752,142.106 381.254 C 142.356 381.004,141.411 380.819,139.446 380.733 C 137.534 380.650,136.447 380.749,136.531 381.000 M224.087 380.718 C 222.366 380.787,221.271 380.992,221.411 381.218 C 221.735 381.742,226.689 381.703,227.016 381.173 C 227.379 380.587,227.368 380.585,224.087 380.718 M351.287 380.718 C 349.566 380.787,348.471 380.992,348.611 381.218 C 348.935 381.742,353.889 381.703,354.216 381.173 C 354.579 380.587,354.568 380.585,351.287 380.718 M52.001 381.300 C 52.000 381.465,53.969 381.600,56.376 381.600 C 58.783 381.600,60.836 381.465,60.939 381.300 C 61.041 381.135,59.072 381.000,56.563 381.000 C 54.054 381.000,52.001 381.135,52.001 381.300 M77.201 381.300 C 77.200 381.465,78.899 381.600,80.976 381.600 C 83.053 381.600,84.836 381.465,84.939 381.300 C 85.041 381.135,83.342 381.000,81.163 381.000 C 78.984 381.000,77.201 381.135,77.201 381.300 M114.538 381.294 C 115.147 381.681,120.299 381.686,120.538 381.300 C 120.640 381.135,119.228 381.000,117.400 381.000 C 115.572 381.000,114.284 381.132,114.538 381.294 M166.662 381.300 C 166.764 381.465,168.446 381.600,170.400 381.600 C 172.354 381.600,174.036 381.465,174.138 381.300 C 174.240 381.135,172.558 381.000,170.400 381.000 C 168.242 381.000,166.560 381.135,166.662 381.300 M189.738 381.294 C 190.347 381.681,195.899 381.686,196.138 381.300 C 196.240 381.135,194.738 381.000,192.800 381.000 C 190.862 381.000,189.484 381.132,189.738 381.294 M250.137 381.294 C 250.747 381.681,256.300 381.686,256.537 381.300 C 256.639 381.135,255.136 381.000,253.198 381.000 C 251.260 381.000,249.882 381.132,250.137 381.294 M289.861 381.300 C 289.964 381.465,291.286 381.600,292.800 381.600 C 294.314 381.600,295.636 381.465,295.737 381.300 C 295.838 381.135,294.516 381.000,292.798 381.000 C 291.081 381.000,289.759 381.135,289.861 381.300 M331.863 381.300 C 331.964 381.465,333.646 381.600,335.600 381.600 C 337.554 381.600,339.236 381.465,339.339 381.300 C 339.441 381.135,337.759 381.000,335.601 381.000 C 333.444 381.000,331.761 381.135,331.863 381.300 " stroke="none" fill="#74747c" fill-rule="evenodd"></path></g></svg>